# OBJ generated by ONSHAPE BY PTC INC, 1.197 Units = meters
mtllib Tango.mtl
g Tango
v 0.320744 -0.6 0.215176 
v 0.323949 -0.6 0.215701 
v 0.327079 -0.6 0.21657 
v 0.330097 -0.6 0.217773 
v 0.332967 -0.6 0.219294 
v 0.335655 -0.6 0.221117 
v 0.338131 -0.6 0.22322 
v 0.340365 -0.6 0.225578 
v 0.342331 -0.6 0.228164 
v 0.344005 -0.6 0.230948 
v 0.345369 -0.6 0.233896 
v 0.346406 -0.6 0.236974 
v 0.347105 -0.6 0.240147 
v 0.347456 -0.6 0.243376 
v 0.347456 -0.6 0.246624 
v 0.347105 -0.6 0.249853 
v 0.346406 -0.6 0.253026 
v 0.345369 -0.6 0.256104 
v 0.344005 -0.6 0.259052 
v 0.342331 -0.6 0.261836 
v 0.340365 -0.6 0.264422 
v 0.338131 -0.6 0.26678 
v 0.335655 -0.6 0.268883 
v 0.332967 -0.6 0.270706 
v 0.330097 -0.6 0.272227 
v 0.327079 -0.6 0.27343 
v 0.323949 -0.6 0.274299 
v 0.320744 -0.6 0.274824 
v 0.3175 -0.6 0.275 
v 0.314256 -0.6 0.274824 
v 0.311051 -0.6 0.274299 
v 0.307921 -0.6 0.27343 
v 0.304903 -0.6 0.272227 
v 0.302033 -0.6 0.270706 
v 0.299345 -0.6 0.268883 
v 0.296869 -0.6 0.26678 
v 0.294635 -0.6 0.264422 
v 0.292669 -0.6 0.261836 
v 0.290995 -0.6 0.259052 
v 0.289631 -0.6 0.256104 
v 0.288594 -0.6 0.253026 
v 0.287895 -0.6 0.249853 
v 0.287544 -0.6 0.246624 
v 0.287544 -0.6 0.243376 
v 0.287895 -0.6 0.240147 
v 0.288594 -0.6 0.236974 
v 0.289631 -0.6 0.233896 
v 0.290995 -0.6 0.230948 
v 0.292669 -0.6 0.228164 
v 0.294635 -0.6 0.225578 
v 0.296869 -0.6 0.22322 
v 0.299345 -0.6 0.221117 
v 0.302033 -0.6 0.219294 
v 0.304903 -0.6 0.217773 
v 0.307921 -0.6 0.21657 
v 0.311051 -0.6 0.215701 
v 0.314256 -0.6 0.215176 
v 0.3175 -0.6 0.215 
v 0.3175 -0.6 0.245 
v 0.3175 -0.3 0.295 
v 0.322906 -0.3 0.294707 
v 0.328249 -0.3 0.293831 
v 0.333465 -0.3 0.292383 
v 0.338494 -0.3 0.290379 
v 0.343278 -0.3 0.287843 
v 0.347759 -0.3 0.284805 
v 0.351885 -0.3 0.2813 
v 0.355608 -0.3 0.277369 
v 0.358884 -0.3 0.273059 
v 0.361676 -0.3 0.26842 
v 0.363949 -0.3 0.263507 
v 0.365677 -0.3 0.258376 
v 0.366841 -0.3 0.253089 
v 0.3675 -0.3 0.245 
v 0.367427 -0.3 0.242293 
v 0.366841 -0.3 0.236911 
v 0.365677 -0.3 0.231624 
v 0.363949 -0.3 0.226493 
v 0.361676 -0.3 0.22158 
v 0.358884 -0.3 0.216941 
v 0.355608 -0.3 0.212631 
v 0.351885 -0.3 0.2087 
v 0.347759 -0.3 0.205195 
v 0.343278 -0.3 0.202157 
v 0.338494 -0.3 0.199621 
v 0.333465 -0.3 0.197617 
v 0.328249 -0.3 0.196169 
v 0.322906 -0.3 0.195293 
v 0.3175 -0.3 0.195 
v 0.312094 -0.3 0.195293 
v 0.306751 -0.3 0.196169 
v 0.301535 -0.3 0.197617 
v 0.296506 -0.3 0.199621 
v 0.291722 -0.3 0.202157 
v 0.287241 -0.3 0.205195 
v 0.283115 -0.3 0.2087 
v 0.279392 -0.3 0.212631 
v 0.276116 -0.3 0.216941 
v 0.273324 -0.3 0.22158 
v 0.271051 -0.3 0.226493 
v 0.269323 -0.3 0.231624 
v 0.268159 -0.3 0.236911 
v 0.267573 -0.3 0.242293 
v 0.267573 -0.3 0.247707 
v 0.268159 -0.3 0.253089 
v 0.269323 -0.3 0.258376 
v 0.271051 -0.3 0.263507 
v 0.273324 -0.3 0.26842 
v 0.276116 -0.3 0.273059 
v 0.279392 -0.3 0.277369 
v 0.283115 -0.3 0.2813 
v 0.287241 -0.3 0.284805 
v 0.291722 -0.3 0.287843 
v 0.296506 -0.3 0.290379 
v 0.301535 -0.3 0.292383 
v 0.306751 -0.3 0.293831 
v 0.312094 -0.3 0.294707 
v 0.367427 -0.3 0.247707 
v -0.3675 -0.3 0.305 
v 0.3675 -0.3 -0.025 
v -0.3675 -0.3 -0.025 
v 0.3675 -0.3 0.305 
v -0.3675 0.325 -0.025 
v 0.3675 0.325 -0.025 
v 0.3675 0.322781 0.24262 
v 0.3675 0.321813 0.245019 
v 0.3675 0.320313 0.249926 
v 0.3675 0.32099 0.247457 
v 0.3675 0.32099 0.272543 
v 0.3675 0.321813 0.274981 
v 0.3675 0.319785 0.267578 
v 0.3675 0.320313 0.270074 
v 0.3675 0.31918 0.262535 
v 0.3675 0.319407 0.265063 
v 0.3675 0.319785 0.252422 
v 0.3675 0.319104 0.26 
v 0.3675 0.319407 0.254937 
v 0.3675 0.31918 0.257465 
v 0.3675 0.322781 0.27738 
v 0.3675 0.325 0.281794 
v 0.3675 0.325 0.238206 
v 0.3675 0.325 0.305 
v 0.339174 0.325 0.300008 
v 0.331668 0.325 0.302701 
v 0.346158 0.325 0.296945 
v 0.352555 0.325 0.293542 
v 0.365517 0.325 0.283843 
v 0.358306 0.325 0.289829 
v 0.363358 0.325 0.285841 
v 0.323709 0.325 0.305 
v 0.356065 0.343301 0.304176 
v 0.357418 0.341134 0.302639 
v 0.358523 0.339366 0.301384 
v 0.359523 0.337767 0.29995 
v 0.361483 0.334629 0.296899 
v 0.360807 0.335711 0.298108 
v 0.363283 0.331748 0.29351 
v 0.36289 0.332378 0.294385 
v 0.364907 0.32915 0.289814 
v 0.364747 0.329406 0.290259 
v 0.366357 0.326829 0.285778 
v 0.366335 0.326864 0.285838 
v 0.355203 0.344679 0.305 
v 0.368468 0.32345 0.277358 
v 0.367701 0.324679 0.280994 
v 0.368763 0.322979 0.275965 
v 0.369269 0.32217 0.272526 
v 0.36953 0.321751 0.270749 
v 0.369807 0.321309 0.267567 
v 0.369994 0.321008 0.265406 
v 0.370077 0.320876 0.262531 
v 0.37015 0.32076 0.26 
v 0.370077 0.320876 0.257469 
v 0.369807 0.321309 0.252433 
v 0.369994 0.321008 0.254594 
v 0.369269 0.32217 0.247474 
v 0.36953 0.321751 0.249251 
v 0.368468 0.32345 0.242642 
v 0.368763 0.322979 0.244035 
v 0.367701 0.324679 0.239006 
v -0.3675 0.322781 0.27738 
v -0.3675 0.321813 0.274981 
v -0.3675 0.32099 0.272543 
v -0.3675 0.32099 0.247457 
v -0.3675 0.321813 0.245019 
v -0.3675 0.319785 0.252422 
v -0.3675 0.320313 0.249926 
v -0.3675 0.320313 0.270074 
v -0.3675 0.31918 0.257465 
v -0.3675 0.319407 0.254937 
v -0.3675 0.319785 0.267578 
v -0.3675 0.319104 0.26 
v -0.3675 0.319407 0.265063 
v -0.3675 0.31918 0.262535 
v -0.3675 0.322781 0.24262 
v -0.3675 0.325 0.238206 
v -0.3675 0.325 0.305 
v -0.3675 0.325 0.281794 
v -0.323709 0.325 0.305 
v -0.331668 0.325 0.302701 
v -0.339174 0.325 0.300008 
v -0.363358 0.325 0.285841 
v -0.365517 0.325 0.283843 
v -0.346158 0.325 0.296945 
v -0.358306 0.325 0.289829 
v -0.352555 0.325 0.293542 
v -0.366335 0.326864 0.285838 
v -0.366357 0.326829 0.285778 
v -0.364907 0.32915 0.289814 
v -0.363283 0.331748 0.29351 
v -0.364747 0.329406 0.290259 
v -0.361483 0.334629 0.296899 
v -0.36289 0.332378 0.294385 
v -0.359523 0.337767 0.29995 
v -0.360807 0.335711 0.298108 
v -0.358523 0.339366 0.301384 
v -0.357418 0.341134 0.302639 
v -0.356065 0.343301 0.304176 
v -0.355203 0.344679 0.305 
v -0.368468 0.32345 0.242642 
v -0.367701 0.324679 0.239006 
v -0.368763 0.322979 0.244035 
v -0.369269 0.32217 0.247474 
v -0.36953 0.321751 0.249251 
v -0.369807 0.321309 0.252433 
v -0.369994 0.321008 0.254594 
v -0.370077 0.320876 0.257469 
v -0.37015 0.32076 0.26 
v -0.370077 0.320876 0.262531 
v -0.369807 0.321309 0.267567 
v -0.369994 0.321008 0.265406 
v -0.369269 0.32217 0.272526 
v -0.36953 0.321751 0.270749 
v -0.368468 0.32345 0.277358 
v -0.368763 0.322979 0.275965 
v -0.367701 0.324679 0.280994 
v 0.365252 0.353147 0.305 
v 0.375199 0.361731 0.305 
v 0.3875 0.372763 0.305 
v 0.3875 -0.4 0.305 
v -0.3875 -0.4 0.305 
v -0.375199 0.361731 0.305 
v -0.365252 0.353147 0.305 
v -0.3875 0.372763 0.305 
v -0.3875 -0.4 0.335 
v 0.3875 -0.4 0.335 
v -0.3875 0.385 0.335 
v -0.3875 0.375616 0.305646 
v -0.3875 0.381559 0.306562 
v -0.3875 0.385 0.306838 
v 0.3875 0.385 0.335 
v 0.3875 0.375616 0.305646 
v 0.3875 0.381559 0.306562 
v 0.3875 0.385 0.306838 
v 0.378589 0.385 0.307528 
v 0.37372 0.385 0.307706 
v 0.383432 0.385 0.307212 
v 0.065 0.385 0.305 
v -0.05 0.385 0.305 
v 0.344181 0.385 0.305779 
v 0.339643 0.385 0.305 
v -0.36879 0.385 0.307744 
v -0.37372 0.385 0.307706 
v -0.339643 0.385 0.305 
v 0.36879 0.385 0.307744 
v -0.363863 0.385 0.307641 
v 0.363863 0.385 0.307641 
v -0.358902 0.385 0.307394 
v 0.349046 0.385 0.306463 
v 0.358902 0.385 0.307394 
v -0.353975 0.385 0.307002 
v -0.344181 0.385 0.305779 
v 0.353975 0.385 0.307002 
v -0.349046 0.385 0.306463 
v -0.378589 0.385 0.307528 
v -0.383408 0.385 0.307155 
v -0.537118 0.525324 0.26 
v -0.537227 0.52515 0.263784 
v -0.317237 0.405438 0.262744 
v -0.317313 0.405316 0.265406 
v -0.537552 0.52463 0.267524 
v -0.317777 0.404573 0.270749 
v -0.317541 0.404952 0.268027 
v -0.538089 0.52377 0.271176 
v -0.318545 0.403345 0.275965 
v -0.31814 0.403992 0.273218 
v -0.538833 0.52258 0.274696 
v -0.319607 0.401646 0.280994 
v -0.319029 0.40257 0.27826 
v -0.539773 0.521075 0.278044 
v -0.32095 0.399495 0.285778 
v -0.320197 0.400701 0.283095 
v -0.5409 0.519271 0.281181 
v -0.32256 0.396918 0.290259 
v -0.32163 0.398407 0.287669 
v -0.5422 0.517191 0.284069 
v -0.324418 0.393946 0.294385 
v -0.323313 0.395715 0.29193 
v -0.543658 0.514857 0.286676 
v -0.326501 0.390613 0.298108 
v -0.325225 0.392653 0.295829 
v -0.545257 0.512299 0.288969 
v -0.328784 0.386958 0.301384 
v -0.327347 0.389258 0.299323 
v -0.546978 0.509545 0.290923 
v -0.331243 0.383024 0.304176 
v -0.329654 0.385567 0.302371 
v -0.564353 0.481739 0.290923 
v -0.566074 0.478985 0.288969 
v -0.567673 0.476426 0.286676 
v -0.569131 0.474093 0.284069 
v -0.570431 0.472013 0.281181 
v -0.571558 0.470209 0.278044 
v -0.572499 0.468704 0.274696 
v -0.573242 0.467514 0.271176 
v -0.573779 0.466654 0.267524 
v -0.574104 0.466134 0.263784 
v -0.574213 0.46596 0.26 
v -0.574104 0.466134 0.256216 
v -0.573779 0.466654 0.252476 
v -0.573242 0.467514 0.248824 
v -0.572499 0.468704 0.245304 
v -0.366445 0.326688 0.23453 
v -0.571558 0.470209 0.241956 
v -0.366357 0.326829 0.234222 
v -0.570431 0.472013 0.238819 
v -0.364747 0.329406 0.229741 
v -0.364879 0.329195 0.230108 
v -0.569131 0.474093 0.235931 
v -0.36289 0.332378 0.225615 
v -0.363073 0.332084 0.226023 
v -0.567673 0.476426 0.233324 
v -0.360807 0.335711 0.221892 
v -0.361048 0.335325 0.222324 
v -0.566074 0.478985 0.231031 
v -0.358523 0.339366 0.218616 
v -0.358827 0.33888 0.219052 
v -0.564353 0.481739 0.229077 
v -0.356065 0.343301 0.215824 
v -0.356434 0.34271 0.216244 
v -0.562531 0.484656 0.227486 
v -0.353461 0.347467 0.213551 
v -0.353896 0.34677 0.213931 
v -0.560628 0.487701 0.226276 
v -0.350742 0.351818 0.211823 
v -0.351243 0.351016 0.212141 
v -0.558666 0.49084 0.225461 
v -0.34794 0.356302 0.210659 
v -0.348505 0.355399 0.210893 
v -0.55667 0.494035 0.225051 
v -0.345088 0.360867 0.210073 
v -0.345712 0.359869 0.210201 
v -0.342895 0.364376 0.210073 
v -0.554662 0.497249 0.225051 
v -0.342219 0.365458 0.210073 
v -0.340088 0.368868 0.210511 
v -0.552665 0.500444 0.225461 
v -0.339367 0.370022 0.210659 
v -0.337321 0.373296 0.211508 
v -0.550704 0.503583 0.226276 
v -0.336565 0.374506 0.211823 
v -0.334627 0.377608 0.213055 
v -0.548801 0.506628 0.227486 
v -0.333846 0.378857 0.213551 
v -0.546978 0.509545 0.229077 
v -0.332035 0.381757 0.215133 
v -0.331243 0.383024 0.215824 
v -0.545257 0.512299 0.231031 
v -0.329574 0.385694 0.217719 
v -0.328784 0.386958 0.218616 
v -0.543658 0.514857 0.233324 
v -0.327273 0.389376 0.220783 
v -0.326501 0.390613 0.221892 
v -0.5422 0.517191 0.235931 
v -0.325158 0.392761 0.224292 
v -0.324418 0.393946 0.225615 
v -0.5409 0.519271 0.238819 
v -0.323252 0.395811 0.228204 
v -0.32256 0.396918 0.229741 
v -0.539773 0.521075 0.241956 
v -0.321578 0.398491 0.232476 
v -0.32095 0.399495 0.234222 
v -0.538833 0.52258 0.245304 
v -0.320153 0.400771 0.23706 
v -0.319607 0.401646 0.239006 
v -0.538089 0.52377 0.248824 
v -0.318995 0.402625 0.241903 
v -0.318545 0.403345 0.244035 
v -0.537552 0.52463 0.252476 
v -0.318116 0.404032 0.246951 
v -0.317777 0.404573 0.249251 
v -0.537227 0.52515 0.256216 
v -0.317526 0.404976 0.252146 
v -0.317313 0.405316 0.254594 
v -0.317231 0.405446 0.257431 
v -0.317158 0.405565 0.26 
v -0.554662 0.497249 0.294949 
v -0.55667 0.494035 0.294949 
v -0.552665 0.500444 0.294539 
v -0.550704 0.503583 0.293724 
v -0.548801 0.506628 0.292514 
v -0.562531 0.484656 0.292514 
v -0.560628 0.487701 0.293724 
v -0.558666 0.49084 0.294539 
v -0.332104 0.381645 0.305 
v -0.241453 0.325 0.305 
v -0.236993 0.325 0.303776 
v -0.232662 0.325 0.302429 
v -0.228472 0.325 0.300961 
v -0.224435 0.325 0.299377 
v -0.220563 0.325 0.297682 
v -0.216867 0.325 0.29588 
v -0.213357 0.325 0.293976 
v -0.210044 0.325 0.291975 
v -0.206935 0.325 0.289885 
v -0.204042 0.325 0.287709 
v -0.20137 0.325 0.285455 
v -0.198929 0.325 0.283129 
v -0.196725 0.325 0.280737 
v -0.194764 0.325 0.278287 
v -0.193053 0.325 0.275785 
v -0.191594 0.325 0.273238 
v -0.190394 0.325 0.270653 
v -0.189455 0.325 0.268038 
v -0.18878 0.325 0.265401 
v -0.18837 0.325 0.262748 
v -0.188228 0.325 0.260088 
v -0.188352 0.325 0.257427 
v -0.188744 0.325 0.254773 
v -0.189402 0.325 0.252135 
v -0.190324 0.325 0.249518 
v -0.191507 0.325 0.246932 
v -0.192949 0.325 0.244382 
v -0.194644 0.325 0.241876 
v -0.196589 0.325 0.239422 
v -0.198777 0.325 0.237027 
v -0.201202 0.325 0.234696 
v -0.203859 0.325 0.232437 
v -0.206738 0.325 0.230256 
v -0.209832 0.325 0.22816 
v -0.213133 0.325 0.226153 
v -0.21663 0.325 0.224243 
v -0.220314 0.325 0.222434 
v -0.224175 0.325 0.220731 
v -0.228201 0.325 0.21914 
v -0.232381 0.325 0.217664 
v -0.236703 0.325 0.216309 
v -0.241156 0.325 0.215077 
v -0.245726 0.325 0.213972 
v -0.2504 0.325 0.212998 
v -0.255165 0.325 0.212157 
v -0.260009 0.325 0.211452 
v -0.264916 0.325 0.210884 
v -0.269873 0.325 0.210456 
v -0.274866 0.325 0.210167 
v -0.279881 0.325 0.21002 
v -0.284904 0.325 0.210015 
v -0.28992 0.325 0.210151 
v -0.294915 0.325 0.210429 
v -0.299876 0.325 0.210847 
v -0.304787 0.325 0.211404 
v -0.309635 0.325 0.212099 
v -0.314407 0.325 0.21293 
v -0.319089 0.325 0.213894 
v -0.323667 0.325 0.214989 
v -0.328129 0.325 0.216211 
v -0.332461 0.325 0.217558 
v -0.336653 0.325 0.219025 
v -0.340691 0.325 0.220607 
v -0.344564 0.325 0.222302 
v -0.348262 0.325 0.224103 
v -0.351773 0.325 0.226006 
v -0.355089 0.325 0.228005 
v -0.358199 0.325 0.230095 
v -0.361095 0.325 0.23227 
v -0.363768 0.325 0.234523 
v -0.555666 0.495642 0.26 
v -0.05 0.325 0.305 
v 0.537227 0.52515 0.256216 
v 0.317313 0.405316 0.254594 
v 0.317231 0.405446 0.257431 
v 0.537118 0.525324 0.26 
v 0.537552 0.52463 0.252476 
v 0.317777 0.404573 0.249251 
v 0.317526 0.404976 0.252146 
v 0.538089 0.52377 0.248824 
v 0.318545 0.403345 0.244035 
v 0.318116 0.404032 0.246951 
v 0.538833 0.52258 0.245304 
v 0.319607 0.401646 0.239006 
v 0.318995 0.402625 0.241903 
v 0.539773 0.521075 0.241956 
v 0.32095 0.399495 0.234222 
v 0.320153 0.400771 0.23706 
v 0.5409 0.519271 0.238819 
v 0.32256 0.396918 0.229741 
v 0.321578 0.398491 0.232476 
v 0.5422 0.517191 0.235931 
v 0.324418 0.393946 0.225615 
v 0.323252 0.395811 0.228204 
v 0.543658 0.514857 0.233324 
v 0.326501 0.390613 0.221892 
v 0.325158 0.392761 0.224292 
v 0.545257 0.512299 0.231031 
v 0.328784 0.386958 0.218616 
v 0.327273 0.389376 0.220783 
v 0.546978 0.509545 0.229077 
v 0.331243 0.383024 0.215824 
v 0.329574 0.385694 0.217719 
v 0.548801 0.506628 0.227486 
v 0.333846 0.378857 0.213551 
v 0.332035 0.381757 0.215133 
v 0.334627 0.377608 0.213055 
v 0.550704 0.503583 0.226276 
v 0.336565 0.374506 0.211823 
v 0.337321 0.373296 0.211508 
v 0.552665 0.500444 0.225461 
v 0.339367 0.370022 0.210659 
v 0.340088 0.368868 0.210511 
v 0.554662 0.497249 0.225051 
v 0.342219 0.365458 0.210073 
v 0.342895 0.364376 0.210073 
v 0.55667 0.494035 0.225051 
v 0.345088 0.360867 0.210073 
v 0.345712 0.359869 0.210201 
v 0.558666 0.49084 0.225461 
v 0.34794 0.356302 0.210659 
v 0.348505 0.355399 0.210893 
v 0.560628 0.487701 0.226276 
v 0.350742 0.351818 0.211823 
v 0.351243 0.351016 0.212141 
v 0.562531 0.484656 0.227486 
v 0.353461 0.347467 0.213551 
v 0.353896 0.34677 0.213931 
v 0.564353 0.481739 0.229077 
v 0.356065 0.343301 0.215824 
v 0.356434 0.34271 0.216244 
v 0.566074 0.478985 0.231031 
v 0.358523 0.339366 0.218616 
v 0.358827 0.33888 0.219052 
v 0.567673 0.476426 0.233324 
v 0.360807 0.335711 0.221892 
v 0.361048 0.335325 0.222324 
v 0.569131 0.474093 0.235931 
v 0.36289 0.332378 0.225615 
v 0.363073 0.332084 0.226023 
v 0.570431 0.472013 0.238819 
v 0.364747 0.329406 0.229741 
v 0.364879 0.329195 0.230108 
v 0.571558 0.470209 0.241956 
v 0.366357 0.326829 0.234222 
v 0.366445 0.326688 0.23453 
v 0.572499 0.468704 0.245304 
v 0.573242 0.467514 0.248824 
v 0.573779 0.466654 0.252476 
v 0.574104 0.466134 0.256216 
v 0.574213 0.46596 0.26 
v 0.574104 0.466134 0.263784 
v 0.573779 0.466654 0.267524 
v 0.573242 0.467514 0.271176 
v 0.572499 0.468704 0.274696 
v 0.571558 0.470209 0.278044 
v 0.570431 0.472013 0.281181 
v 0.569131 0.474093 0.284069 
v 0.567673 0.476426 0.286676 
v 0.566074 0.478985 0.288969 
v 0.564353 0.481739 0.290923 
v 0.546978 0.509545 0.290923 
v 0.545257 0.512299 0.288969 
v 0.329654 0.385567 0.302371 
v 0.328784 0.386958 0.301384 
v 0.543658 0.514857 0.286676 
v 0.327347 0.389258 0.299323 
v 0.326501 0.390613 0.298108 
v 0.5422 0.517191 0.284069 
v 0.325225 0.392653 0.295829 
v 0.324418 0.393946 0.294385 
v 0.5409 0.519271 0.281181 
v 0.323313 0.395715 0.29193 
v 0.32256 0.396918 0.290259 
v 0.539773 0.521075 0.278044 
v 0.32163 0.398407 0.287669 
v 0.32095 0.399495 0.285778 
v 0.538833 0.52258 0.274696 
v 0.320197 0.400701 0.283095 
v 0.319607 0.401646 0.280994 
v 0.538089 0.52377 0.271176 
v 0.319029 0.40257 0.27826 
v 0.318545 0.403345 0.275965 
v 0.537552 0.52463 0.267524 
v 0.31814 0.403992 0.273218 
v 0.317777 0.404573 0.270749 
v 0.537227 0.52515 0.263784 
v 0.317541 0.404952 0.268027 
v 0.317313 0.405316 0.265406 
v 0.317158 0.405565 0.26 
v 0.317237 0.405438 0.262744 
v 0.560628 0.487701 0.293724 
v 0.558666 0.49084 0.294539 
v 0.562531 0.484656 0.292514 
v 0.331243 0.383024 0.304176 
v 0.332104 0.381645 0.305 
v 0.548801 0.506628 0.292514 
v 0.550704 0.503583 0.293724 
v 0.552665 0.500444 0.294539 
v 0.554662 0.497249 0.294949 
v 0.55667 0.494035 0.294949 
v 0.363768 0.325 0.234523 
v 0.361095 0.325 0.23227 
v 0.358199 0.325 0.230095 
v 0.355089 0.325 0.228005 
v 0.351773 0.325 0.226006 
v 0.348262 0.325 0.224103 
v 0.344564 0.325 0.222302 
v 0.340691 0.325 0.220607 
v 0.336653 0.325 0.219025 
v 0.332461 0.325 0.217558 
v 0.328129 0.325 0.216211 
v 0.323667 0.325 0.214989 
v 0.319089 0.325 0.213894 
v 0.314407 0.325 0.21293 
v 0.309635 0.325 0.212099 
v 0.304787 0.325 0.211404 
v 0.299876 0.325 0.210847 
v 0.294915 0.325 0.210429 
v 0.28992 0.325 0.210151 
v 0.284904 0.325 0.210015 
v 0.279881 0.325 0.21002 
v 0.274866 0.325 0.210167 
v 0.269873 0.325 0.210456 
v 0.264916 0.325 0.210884 
v 0.260009 0.325 0.211452 
v 0.255165 0.325 0.212157 
v 0.2504 0.325 0.212998 
v 0.245726 0.325 0.213972 
v 0.241156 0.325 0.215077 
v 0.236703 0.325 0.216309 
v 0.232381 0.325 0.217664 
v 0.228201 0.325 0.21914 
v 0.224175 0.325 0.220731 
v 0.220314 0.325 0.222434 
v 0.21663 0.325 0.224243 
v 0.213133 0.325 0.226153 
v 0.209832 0.325 0.22816 
v 0.206738 0.325 0.230256 
v 0.203859 0.325 0.232437 
v 0.201202 0.325 0.234696 
v 0.198777 0.325 0.237027 
v 0.196589 0.325 0.239422 
v 0.194644 0.325 0.241876 
v 0.192949 0.325 0.244382 
v 0.191507 0.325 0.246932 
v 0.190324 0.325 0.249518 
v 0.189402 0.325 0.252135 
v 0.188744 0.325 0.254773 
v 0.188352 0.325 0.257427 
v 0.188228 0.325 0.260088 
v 0.18837 0.325 0.262748 
v 0.18878 0.325 0.265401 
v 0.189455 0.325 0.268038 
v 0.190394 0.325 0.270653 
v 0.191594 0.325 0.273238 
v 0.193053 0.325 0.275785 
v 0.194764 0.325 0.278287 
v 0.196725 0.325 0.280737 
v 0.198929 0.325 0.283129 
v 0.20137 0.325 0.285455 
v 0.204042 0.325 0.287709 
v 0.206935 0.325 0.289885 
v 0.210044 0.325 0.291975 
v 0.213357 0.325 0.293976 
v 0.216867 0.325 0.29588 
v 0.220563 0.325 0.297682 
v 0.224435 0.325 0.299377 
v 0.228472 0.325 0.300961 
v 0.232662 0.325 0.302429 
v 0.236993 0.325 0.303776 
v 0.241453 0.325 0.305 
v 0.555666 0.495642 0.26 
v 0.065 0.325 0.305 
v -0.05 0.325 0.295 
v 0.065 0.325 0.295 
v 0.065 0.44 0.295 
v 0.065 0.44 0.305 
v -0.05 0.465 0.295 
v -0.05 0.465 0.305 
v 0.0075 0.44 0.295 
v 0.0075 0.465 0.295 
v 0.0075 0.44 0.305 
v 0.0075 0.465 0.305 
vn 0 -1 0 
vn 0 -0.066519 0.997785 
vn 0.10788 -0.066519 0.991936 
vn 0.214494 -0.066519 0.974457 
vn 0.318594 -0.066519 0.945554 
vn 0.418959 -0.066519 0.905565 
vn 0.514412 -0.066519 0.854959 
vn 0.603834 -0.066519 0.79433 
vn 0.686176 -0.066519 0.724388 
vn 0.760474 -0.066519 0.645952 
vn 0.825856 -0.066519 0.559944 
vn 0.881555 -0.066519 0.467371 
vn 0.926919 -0.066519 0.369318 
vn 0.961416 -0.066519 0.266936 
vn 0.984641 -0.066519 0.161424 
vn 0.996322 -0.066519 0.054019 
vn 0.997785 -0.066519 6.10967e-17 
vn 0.996322 -0.066519 -0.054019 
vn 0.984641 -0.066519 -0.161424 
vn 0.961416 -0.066519 -0.266936 
vn 0.926919 -0.066519 -0.369318 
vn 0.881555 -0.066519 -0.467371 
vn 0.825856 -0.066519 -0.559944 
vn 0.760474 -0.066519 -0.645952 
vn 0.686176 -0.066519 -0.724388 
vn 0.603834 -0.066519 -0.79433 
vn 0.514412 -0.066519 -0.854959 
vn 0.418959 -0.066519 -0.905565 
vn 0.318594 -0.066519 -0.945554 
vn 0.214494 -0.066519 -0.974457 
vn 0.10788 -0.066519 -0.991936 
vn -2.07706e-16 -0.066519 -0.997785 
vn -0.10788 -0.066519 -0.991936 
vn -0.214494 -0.066519 -0.974457 
vn -0.318594 -0.066519 -0.945554 
vn -0.418959 -0.066519 -0.905565 
vn -0.514412 -0.066519 -0.854959 
vn -0.603834 -0.066519 -0.79433 
vn -0.686176 -0.066519 -0.724388 
vn -0.760474 -0.066519 -0.645952 
vn -0.825856 -0.066519 -0.559944 
vn -0.881555 -0.066519 -0.467371 
vn -0.926919 -0.066519 -0.369318 
vn -0.961416 -0.066519 -0.266936 
vn -0.984641 -0.066519 -0.161424 
vn -0.996322 -0.066519 -0.054019 
vn -0.996322 -0.066519 0.054019 
vn -0.984641 -0.066519 0.161424 
vn -0.961416 -0.066519 0.266936 
vn -0.926919 -0.066519 0.369318 
vn -0.881555 -0.066519 0.467371 
vn -0.825856 -0.066519 0.559944 
vn -0.760474 -0.066519 0.645952 
vn -0.686176 -0.066519 0.724388 
vn -0.603834 -0.066519 0.79433 
vn -0.514412 -0.066519 0.854959 
vn -0.418959 -0.066519 0.905565 
vn -0.318594 -0.066519 0.945554 
vn -0.214494 -0.066519 0.974457 
vn -0.10788 -0.066519 0.991936 
vn 0.996322 -0.066519 0.054019 
vn 0 -1 0 
vn 0 0 -1 
vn 1 -8.88178e-17 0 
vn 1.51051e-16 1 0 
vn 0.248219 -0.397233 0.883512 
vn 0.230986 -0.369656 0.9 
vn 0.275686 -0.441191 0.854019 
vn 0.27569 -0.441196 0.854015 
vn 0.297384 -0.475914 0.827689 
vn 0.317842 -0.508653 0.800155 
vn 0.317838 -0.508647 0.800161 
vn 0.357064 -0.571422 0.738906 
vn 0.357054 -0.571406 0.738923 
vn 0.343062 -0.549015 0.762162 
vn 0.39299 -0.628916 0.670838 
vn 0.392979 -0.628898 0.670861 
vn 0.384719 -0.615679 0.687699 
vn 0.42529 -0.680605 0.596578 
vn 0.425282 -0.680594 0.596596 
vn 0.421865 -0.675125 0.605174 
vn 0.453663 -0.726013 0.516811 
vn 0.465789 -0.745418 0.476856 
vn 0.454065 -0.726656 0.515554 
vn 0.453665 -0.726015 0.516808 
vn 0.476927 -0.763243 0.43589 
vn 0.230986 -0.369656 0.9 
vn 0.496875 -0.795167 0.347598 
vn 0.496881 -0.795175 0.347571 
vn 0.480942 -0.769668 0.419889 
vn 0.505574 -0.809088 0.299618 
vn 0.50218 -0.803655 0.319302 
vn 0.512976 -0.820933 0.250846 
vn 0.512973 -0.820929 0.250868 
vn 0.519053 -0.830658 0.201473 
vn 0.51753 -0.828221 0.21497 
vn 0.523799 -0.838253 0.151546 
vn 0.523798 -0.838251 0.15156 
vn 0.527196 -0.843689 0.101257 
vn 0.526813 -0.843077 0.108119 
vn 0.529238 -0.846958 0.0506887 
vn 0.529238 -0.846958 0.0506937 
vn 0.529919 -0.848048 1.11022e-15 
vn 0.529238 -0.846958 -0.0506937 
vn 0.529238 -0.846958 -0.0506887 
vn 0.527196 -0.843689 -0.101257 
vn 0.523798 -0.838251 -0.15156 
vn 0.523799 -0.838253 -0.151546 
vn 0.526813 -0.843077 -0.108119 
vn 0.519053 -0.830658 -0.201473 
vn 0.512973 -0.820929 -0.250868 
vn 0.512976 -0.820933 -0.250846 
vn 0.51753 -0.828221 -0.21497 
vn 0.505574 -0.809088 -0.299618 
vn 0.496875 -0.795167 -0.347598 
vn 0.496881 -0.795175 -0.347571 
vn 0.50218 -0.803655 -0.319302 
vn 0.476927 -0.763243 -0.43589 
vn 0.480942 -0.769668 -0.419889 
vn 0.476927 -0.763243 0.43589 
vn -1 8.88178e-17 0 
vn 1.51051e-16 1 0 
vn -0.453663 -0.726013 0.516811 
vn -0.453665 -0.726015 0.516808 
vn -0.454065 -0.726656 0.515554 
vn -0.476927 -0.763243 0.43589 
vn -0.465789 -0.745418 0.476856 
vn -0.425282 -0.680594 0.596596 
vn -0.392979 -0.628898 0.670861 
vn -0.421865 -0.675125 0.605174 
vn -0.42529 -0.680605 0.596578 
vn -0.39299 -0.628916 0.670838 
vn -0.357054 -0.571406 0.738923 
vn -0.384719 -0.615679 0.687699 
vn -0.357064 -0.571422 0.738906 
vn -0.317838 -0.508647 0.800161 
vn -0.343062 -0.549015 0.762162 
vn -0.317842 -0.508653 0.800155 
vn -0.297384 -0.475914 0.827689 
vn -0.275686 -0.441191 0.854019 
vn -0.27569 -0.441196 0.854015 
vn -0.248219 -0.397233 0.883512 
vn -0.230986 -0.369656 0.9 
vn -0.496875 -0.795167 -0.347598 
vn -0.496881 -0.795175 -0.347571 
vn -0.480942 -0.769668 -0.419889 
vn -0.505574 -0.809088 -0.299618 
vn -0.50218 -0.803655 -0.319302 
vn -0.512976 -0.820933 -0.250846 
vn -0.512973 -0.820929 -0.250868 
vn -0.519053 -0.830658 -0.201473 
vn -0.51753 -0.828221 -0.21497 
vn -0.523799 -0.838253 -0.151546 
vn -0.523798 -0.838251 -0.15156 
vn -0.527196 -0.843689 -0.101257 
vn -0.526813 -0.843077 -0.108119 
vn -0.529238 -0.846958 -0.0506887 
vn -0.529238 -0.846958 -0.0506937 
vn -0.529919 -0.848048 -1.11022e-15 
vn -0.529238 -0.846958 0.0506937 
vn -0.529238 -0.846958 0.0506887 
vn -0.527196 -0.843689 0.101257 
vn -0.523798 -0.838251 0.15156 
vn -0.523799 -0.838253 0.151546 
vn -0.526813 -0.843077 0.108119 
vn -0.519053 -0.830658 0.201473 
vn -0.512973 -0.820929 0.250868 
vn -0.512976 -0.820933 0.250846 
vn -0.51753 -0.828221 0.21497 
vn -0.505574 -0.809088 0.299618 
vn -0.496875 -0.795167 0.347598 
vn -0.496881 -0.795175 0.347571 
vn -0.50218 -0.803655 0.319302 
vn -0.476927 -0.763243 0.43589 
vn -0.480942 -0.769668 0.419889 
vn -0.476927 -0.763243 -0.43589 
vn 0 0 -1 
vn -1.43255e-16 -1 0 
vn -1 1.4143e-16 0 
vn 1 -1.4143e-16 0 
vn 0 0 1 
vn 7.16273e-17 1 0 
vn 0.478176 0.878264 0 
vn 0.475076 0.873301 0.107925 
vn 0.477377 0.876984 0.0548673 
vn 0.465809 0.858472 0.214585 
vn 0.471296 0.867252 0.160479 
vn 0.450487 0.833951 0.318728 
vn 0.459301 0.848058 0.264274 
vn 0.429287 0.800024 0.419135 
vn 0.44153 0.819617 0.365075 
vn 0.402458 0.75709 0.514628 
vn 0.418182 0.782252 0.461741 
vn 0.370316 0.705651 0.604088 
vn 0.389522 0.736387 0.553178 
vn 0.333237 0.646312 0.686465 
vn 0.355876 0.682541 0.638349 
vn 0.291655 0.579767 0.760794 
vn 0.317623 0.621324 0.71629 
vn 0.246058 0.506797 0.826203 
vn 0.275197 0.553429 0.786119 
vn 0.196982 0.428258 0.881926 
vn 0.229079 0.479625 0.847043 
vn -0.298565 -0.364782 0.881926 
vn -0.347642 -0.443321 0.826203 
vn -0.325987 -0.408666 0.852481 
vn -0.393238 -0.516291 0.760794 
vn -0.368059 -0.475996 0.798725 
vn -0.43482 -0.582836 0.686465 
vn -0.407205 -0.538643 0.737596 
vn -0.443065 -0.596031 0.669656 
vn -0.471899 -0.642175 0.604088 
vn -0.504042 -0.693614 0.514628 
vn -0.503642 -0.692974 0.51588 
vn -0.47531 -0.647634 0.595525 
vn -0.526863 -0.730135 0.435107 
vn -0.53087 -0.736548 0.419135 
vn -0.54678 -0.76201 0.346947 
vn -0.55207 -0.770475 0.318728 
vn -0.567393 -0.794996 0.214585 
vn -0.562847 -0.787722 0.250396 
vn -0.576659 -0.809825 0.107925 
vn -0.57365 -0.80501 0.151274 
vn -0.57976 -0.814788 -2.07793e-16 
vn -0.57908 -0.813699 0.0505977 
vn -0.576659 -0.809825 -0.107925 
vn -0.57908 -0.813699 -0.0505977 
vn -0.567393 -0.794996 -0.214585 
vn -0.57365 -0.80501 -0.151274 
vn -0.55207 -0.770475 -0.318728 
vn -0.562847 -0.787722 -0.250396 
vn -0.54678 -0.76201 -0.346947 
vn -0.53087 -0.736548 -0.419135 
vn -0.505939 -0.696651 -0.508628 
vn -0.526863 -0.730135 -0.435107 
vn -0.504042 -0.693614 -0.514628 
vn -0.471899 -0.642175 -0.604088 
vn -0.474714 -0.64668 -0.597036 
vn -0.43482 -0.582836 -0.686465 
vn -0.438688 -0.589027 -0.678675 
vn -0.393238 -0.516291 -0.760794 
vn -0.398269 -0.524342 -0.752627 
vn -0.347642 -0.443321 -0.826203 
vn -0.353914 -0.453359 -0.818053 
vn -0.298565 -0.364782 -0.881926 
vn -0.306125 -0.376881 -0.874213 
vn -0.246583 -0.281593 -0.927309 
vn -0.255445 -0.295775 -0.92047 
vn -0.192305 -0.194732 -0.96182 
vn -0.202446 -0.21096 -0.956301 
vn -0.136369 -0.105215 -0.985055 
vn -0.14773 -0.123396 -0.9813 
vn -0.0794293 -0.0140919 -0.996741 
vn -0.0919164 -0.0340754 -0.995184 
vn -0.0356368 0.0559907 -0.997795 
vn -0.0221538 0.0775681 -0.996741 
vn 0.0204709 0.145782 -0.989105 
vn 0.034786 0.168691 -0.985055 
vn 0.0757713 0.234281 -0.969212 
vn 0.0907224 0.258208 -0.96182 
vn 0.129638 0.320486 -0.93834 
vn 0.145 0.34507 -0.927309 
vn 0.196982 0.428258 -0.881926 
vn 0.181461 0.40342 -0.896841 
vn 0.246058 0.506797 -0.826203 
vn 0.230653 0.482144 -0.845184 
vn 0.291655 0.579767 -0.760794 
vn 0.276658 0.555767 -0.783954 
vn 0.333237 0.646312 -0.686465 
vn 0.318953 0.623454 -0.713845 
vn 0.370316 0.705651 -0.604088 
vn 0.357061 0.684438 -0.63565 
vn 0.402458 0.75709 -0.514628 
vn 0.390549 0.738031 -0.550257 
vn 0.429287 0.800024 -0.419135 
vn 0.419038 0.783623 -0.45863 
vn 0.450487 0.833951 -0.318728 
vn 0.442206 0.820699 -0.36181 
vn 0.465809 0.858472 -0.214585 
vn 0.45979 0.84884 -0.260891 
vn 0.475076 0.873301 -0.107925 
vn 0.471591 0.867725 -0.157018 
vn 0.477476 0.877142 -0.0513662 
vn 0.478176 0.878264 0 
vn -0.0221538 0.0775681 0.996741 
vn -0.0794293 -0.0140919 0.996741 
vn -0.0793227 -0.0139214 0.996752 
vn -0.0507171 0.0318573 0.998205 
vn 0.034786 0.168691 0.985055 
vn -0.0221538 0.0775681 0.996741 
vn 0.00647435 0.123383 0.992338 
vn 0.0907224 0.258208 0.96182 
vn 0.034786 0.168691 0.985055 
vn 0.0629935 0.213832 0.974837 
vn 0.145 0.34507 0.927309 
vn 0.0907224 0.258208 0.96182 
vn 0.118178 0.302145 0.945908 
vn 0.169782 0.384729 0.90728 
vn 0.145 0.34507 0.927309 
vn -0.265077 -0.31119 0.912631 
vn -0.246583 -0.281593 0.927309 
vn -0.298565 -0.364782 0.881926 
vn -0.281363 -0.337254 0.898384 
vn -0.246583 -0.281593 0.927309 
vn -0.219 -0.237452 0.946391 
vn -0.192305 -0.194732 0.96182 
vn -0.136369 -0.105215 0.985055 
vn -0.103779 -0.053059 0.993184 
vn 0.17978 0.40073 0.898384 
vn 0.248219 0.397233 0.883512 
vn 0.230986 0.369656 0.9 
vn 0.280374 0.448692 0.848567 
vn 0.256038 0.409747 0.87553 
vn 0.280365 0.448677 0.848578 
vn 0.297384 0.475914 0.827689 
vn 0.326575 0.522629 0.787533 
vn 0.303896 0.486336 0.819222 
vn 0.326567 0.522616 0.787544 
vn 0.343062 0.549015 0.762162 
vn 0.369077 0.590646 0.717579 
vn 0.348312 0.557416 0.753635 
vn 0.36907 0.590636 0.71759 
vn 0.384719 0.615679 0.687699 
vn 0.407398 0.651974 0.639497 
vn 0.388783 0.622183 0.679512 
vn 0.407393 0.651966 0.639508 
vn 0.421865 0.675125 0.605174 
vn 0.441106 0.705917 0.554173 
vn 0.42485 0.679902 0.597693 
vn 0.441102 0.705911 0.554183 
vn 0.454065 0.726656 0.515554 
vn 0.469817 0.751864 0.462572 
vn 0.456105 0.72992 0.509103 
vn 0.469814 0.75186 0.46258 
vn 0.480942 0.769668 0.419889 
vn 0.493207 0.789296 0.365732 
vn 0.482193 0.77167 0.414747 
vn 0.493205 0.789294 0.365738 
vn 0.50218 0.803655 0.319302 
vn 0.51101 0.817787 0.264749 
vn 0.50282 0.80468 0.315693 
vn 0.51101 0.817787 0.264753 
vn 0.51753 0.828221 0.21497 
vn 0.523026 0.837017 0.160768 
vn 0.517751 0.828576 0.213063 
vn 0.523026 0.837017 0.160769 
vn 0.526813 0.843077 0.108119 
vn 0.529118 0.846766 0.054966 
vn 0.526819 0.843086 0.10802 
vn 0.529118 0.846766 0.0549648 
vn 0.529919 0.848048 0 
vn 0.529918 0.848047 0.00175361 
vn 0.529217 0.846924 -0.0514625 
vn 0.529217 0.846925 -0.0514586 
vn 0.527016 0.843402 -0.104533 
vn 0.526813 0.843077 -0.108119 
vn 0.523322 0.83749 -0.157307 
vn 0.523322 0.837491 -0.1573 
vn 0.518144 0.829204 -0.209635 
vn 0.51753 0.828221 -0.21497 
vn 0.511499 0.818569 -0.261369 
vn 0.5115 0.818571 -0.26136 
vn 0.503404 0.805614 -0.312363 
vn 0.50218 0.803655 -0.319302 
vn 0.493882 0.790376 -0.362471 
vn 0.493884 0.79038 -0.36246 
vn 0.482961 0.772899 -0.411553 
vn 0.480942 0.769668 -0.419889 
vn 0.470671 0.753232 -0.459468 
vn 0.470675 0.753237 -0.459455 
vn 0.457048 0.73143 -0.506081 
vn 0.454065 0.726656 -0.515554 
vn 0.442129 0.707555 -0.55126 
vn 0.442134 0.707563 -0.551246 
vn 0.425958 0.681675 -0.594877 
vn 0.421865 0.675125 -0.605174 
vn 0.40858 0.653864 -0.636808 
vn 0.408586 0.653874 -0.636794 
vn 0.390043 0.6242 -0.676935 
vn 0.384719 0.615679 -0.687699 
vn 0.370402 0.592767 -0.715143 
vn 0.37041 0.59278 -0.715129 
vn 0.349711 0.559654 -0.751325 
vn 0.343062 0.549015 -0.762162 
vn 0.328029 0.524956 -0.785378 
vn 0.328038 0.524971 -0.785364 
vn 0.305417 0.488769 -0.817206 
vn 0.297384 0.475914 -0.827689 
vn 0.28194 0.451198 -0.846717 
vn 0.281951 0.451216 -0.846704 
vn 0.257664 0.412348 -0.87383 
vn 0.248219 0.397233 -0.883512 
vn 0.232658 0.37233 -0.898466 
vn 0.23267 0.37235 -0.898454 
vn 0.206992 0.331257 -0.920556 
vn 0.196143 0.313895 -0.928977 
vn 0.18074 0.289245 -0.940037 
vn 0.180754 0.289267 -0.940028 
vn 0.153976 0.246413 -0.956855 
vn 0.141768 0.226877 -0.96355 
vn 0.126776 0.202883 -0.970962 
vn 0.12679 0.202907 -0.970955 
vn 0.0992159 0.158779 -0.982316 
vn 0.0857314 0.137199 -0.986827 
vn 0.071375 0.114224 -0.990888 
vn 0.0713906 0.114249 -0.990884 
vn 0.0433319 0.0693455 -0.996651 
vn 0.0151659 0.0242706 -0.99959 
vn 0.015182 0.0242962 -0.99959 
vn 0.0286893 0.0459124 -0.998533 
vn -0.013043 -0.0208731 -0.999697 
vn -0.0412149 -0.0659577 -0.996971 
vn -0.0411988 -0.0659318 -0.996973 
vn -0.0286893 -0.0459124 -0.998533 
vn -0.0692701 -0.110855 -0.99142 
vn -0.0971289 -0.155439 -0.983059 
vn -0.097113 -0.155413 -0.983064 
vn -0.0857314 -0.137199 -0.986827 
vn -0.124713 -0.199582 -0.971912 
vn -0.151943 -0.243159 -0.958012 
vn -0.151927 -0.243135 -0.958021 
vn -0.141768 -0.226877 -0.96355 
vn -0.178742 -0.286048 -0.941397 
vn -0.205036 -0.328126 -0.922114 
vn -0.205021 -0.328103 -0.922125 
vn -0.196143 -0.313895 -0.928977 
vn -0.230748 -0.369274 -0.900218 
vn -0.255806 -0.409375 -0.875771 
vn -0.255793 -0.409354 -0.875785 
vn -0.248219 -0.397233 -0.883512 
vn -0.280139 -0.448317 -0.848843 
vn -0.303679 -0.485988 -0.819509 
vn -0.303667 -0.485969 -0.819524 
vn -0.297384 -0.475914 -0.827689 
vn -0.326358 -0.522282 -0.787853 
vn -0.348112 -0.557096 -0.753964 
vn -0.348102 -0.55708 -0.75398 
vn -0.343062 -0.549015 -0.762162 
vn -0.36888 -0.590332 -0.717939 
vn -0.388603 -0.621894 -0.679879 
vn -0.388594 -0.621881 -0.679896 
vn -0.384719 -0.615679 -0.687699 
vn -0.407224 -0.651694 -0.639893 
vn -0.424691 -0.679648 -0.598094 
vn -0.424685 -0.679638 -0.59811 
vn -0.421865 -0.675125 -0.605174 
vn -0.440955 -0.705676 -0.554599 
vn -0.455969 -0.729704 -0.509533 
vn -0.455966 -0.729699 -0.509543 
vn -0.454065 -0.726656 -0.515554 
vn -0.476927 -0.763243 -0.43589 
vn -0.848048 0.529919 0 
vn 0 0 -1 
vn -0.475076 0.873301 -0.107925 
vn -0.477476 0.877142 -0.0513662 
vn -0.478176 0.878264 0 
vn -0.465809 0.858472 -0.214585 
vn -0.471591 0.867725 -0.157018 
vn -0.450487 0.833951 -0.318728 
vn -0.45979 0.84884 -0.260891 
vn -0.429287 0.800024 -0.419135 
vn -0.442206 0.820699 -0.36181 
vn -0.402458 0.75709 -0.514628 
vn -0.419038 0.783623 -0.45863 
vn -0.370316 0.705651 -0.604088 
vn -0.390549 0.738031 -0.550257 
vn -0.333237 0.646312 -0.686465 
vn -0.357061 0.684438 -0.63565 
vn -0.291655 0.579767 -0.760794 
vn -0.318953 0.623454 -0.713845 
vn -0.246058 0.506797 -0.826203 
vn -0.276658 0.555767 -0.783954 
vn -0.196982 0.428258 -0.881926 
vn -0.230653 0.482144 -0.845184 
vn -0.145 0.34507 -0.927309 
vn -0.181461 0.40342 -0.896841 
vn -0.129638 0.320486 -0.93834 
vn -0.0907224 0.258208 -0.96182 
vn -0.0757713 0.234281 -0.969212 
vn -0.034786 0.168691 -0.985055 
vn -0.0204709 0.145782 -0.989105 
vn 0.0221538 0.0775681 -0.996741 
vn 0.0356368 0.0559907 -0.997795 
vn 0.0794293 -0.0140919 -0.996741 
vn 0.0919164 -0.0340754 -0.995184 
vn 0.136369 -0.105215 -0.985055 
vn 0.14773 -0.123396 -0.9813 
vn 0.192305 -0.194732 -0.96182 
vn 0.202446 -0.21096 -0.956301 
vn 0.246583 -0.281593 -0.927309 
vn 0.255445 -0.295775 -0.92047 
vn 0.298565 -0.364782 -0.881926 
vn 0.306125 -0.376881 -0.874213 
vn 0.347642 -0.443321 -0.826203 
vn 0.353914 -0.453359 -0.818053 
vn 0.393238 -0.516291 -0.760794 
vn 0.398269 -0.524342 -0.752627 
vn 0.43482 -0.582836 -0.686465 
vn 0.438688 -0.589027 -0.678675 
vn 0.471899 -0.642175 -0.604088 
vn 0.474714 -0.64668 -0.597036 
vn 0.504042 -0.693614 -0.514628 
vn 0.526863 -0.730135 -0.435107 
vn 0.505939 -0.696651 -0.508628 
vn 0.53087 -0.736548 -0.419135 
vn 0.54678 -0.76201 -0.346947 
vn 0.55207 -0.770475 -0.318728 
vn 0.567393 -0.794996 -0.214585 
vn 0.562847 -0.787722 -0.250396 
vn 0.576659 -0.809825 -0.107925 
vn 0.57365 -0.80501 -0.151274 
vn 0.57976 -0.814788 2.07793e-16 
vn 0.57908 -0.813699 -0.0505977 
vn 0.576659 -0.809825 0.107925 
vn 0.57908 -0.813699 0.0505977 
vn 0.567393 -0.794996 0.214585 
vn 0.57365 -0.80501 0.151274 
vn 0.55207 -0.770475 0.318728 
vn 0.562847 -0.787722 0.250396 
vn 0.54678 -0.76201 0.346947 
vn 0.53087 -0.736548 0.419135 
vn 0.526863 -0.730135 0.435107 
vn 0.504042 -0.693614 0.514628 
vn 0.471899 -0.642175 0.604088 
vn 0.47531 -0.647634 0.595525 
vn 0.503642 -0.692974 0.51588 
vn 0.43482 -0.582836 0.686465 
vn 0.443065 -0.596031 0.669656 
vn 0.393238 -0.516291 0.760794 
vn 0.407205 -0.538643 0.737596 
vn 0.347642 -0.443321 0.826203 
vn 0.368059 -0.475996 0.798725 
vn 0.298565 -0.364782 0.881926 
vn 0.325987 -0.408666 0.852481 
vn -0.196982 0.428258 0.881926 
vn -0.246058 0.506797 0.826203 
vn -0.229079 0.479625 0.847043 
vn -0.291655 0.579767 0.760794 
vn -0.275197 0.553429 0.786119 
vn -0.333237 0.646312 0.686465 
vn -0.317623 0.621324 0.71629 
vn -0.370316 0.705651 0.604088 
vn -0.355876 0.682541 0.638349 
vn -0.402458 0.75709 0.514628 
vn -0.389522 0.736387 0.553178 
vn -0.429287 0.800024 0.419135 
vn -0.418182 0.782252 0.461741 
vn -0.450487 0.833951 0.318728 
vn -0.44153 0.819617 0.365075 
vn -0.465809 0.858472 0.214585 
vn -0.459301 0.848058 0.264274 
vn -0.475076 0.873301 0.107925 
vn -0.471296 0.867252 0.160479 
vn -0.478176 0.878264 0 
vn -0.477377 0.876984 0.0548673 
vn 0.192305 -0.194732 0.96182 
vn 0.136369 -0.105215 0.985055 
vn 0.246583 -0.281593 0.927309 
vn 0.192305 -0.194732 0.96182 
vn 0.219 -0.237452 0.946391 
vn 0.265075 -0.311188 0.912632 
vn 0.246583 -0.281593 0.927309 
vn -0.169782 0.384729 0.90728 
vn -0.145 0.34507 0.927309 
vn -0.196982 0.428258 0.881926 
vn -0.17978 0.40073 0.898384 
vn -0.145 0.34507 0.927309 
vn -0.118178 0.302145 0.945908 
vn -0.0907224 0.258208 0.96182 
vn -0.0629935 0.213832 0.974837 
vn -0.034786 0.168691 0.985055 
vn -0.00647435 0.123383 0.992338 
vn 0.0221538 0.0775681 0.996741 
vn 0.0507171 0.0318573 0.998205 
vn 0.0794293 -0.0140919 0.996741 
vn 0.103779 -0.053059 0.993184 
vn 0.281363 -0.337254 0.898384 
vn 0.424685 -0.679638 -0.59811 
vn 0.454065 -0.726656 -0.515554 
vn 0.455969 -0.729704 -0.509533 
vn 0.440955 -0.705676 -0.554599 
vn 0.455966 -0.729699 -0.509543 
vn 0.388594 -0.621881 -0.679896 
vn 0.421865 -0.675125 -0.605174 
vn 0.424691 -0.679648 -0.598094 
vn 0.407224 -0.651694 -0.639893 
vn 0.348102 -0.55708 -0.75398 
vn 0.384719 -0.615679 -0.687699 
vn 0.388603 -0.621894 -0.679879 
vn 0.36888 -0.590332 -0.717939 
vn 0.303667 -0.485969 -0.819524 
vn 0.343062 -0.549015 -0.762162 
vn 0.348112 -0.557096 -0.753964 
vn 0.326358 -0.522282 -0.787853 
vn 0.255793 -0.409354 -0.875785 
vn 0.297384 -0.475914 -0.827689 
vn 0.303679 -0.485988 -0.819509 
vn 0.280139 -0.448317 -0.848843 
vn 0.205021 -0.328103 -0.922125 
vn 0.248219 -0.397233 -0.883512 
vn 0.255806 -0.409375 -0.875771 
vn 0.230748 -0.369274 -0.900218 
vn 0.151927 -0.243135 -0.958021 
vn 0.196143 -0.313895 -0.928977 
vn 0.205036 -0.328126 -0.922114 
vn 0.178742 -0.286048 -0.941397 
vn 0.097113 -0.155413 -0.983064 
vn 0.141768 -0.226877 -0.96355 
vn 0.151943 -0.243159 -0.958012 
vn 0.124713 -0.199582 -0.971912 
vn 0.0411988 -0.0659318 -0.996973 
vn 0.0857314 -0.137199 -0.986827 
vn 0.0971289 -0.155439 -0.983059 
vn 0.0692701 -0.110855 -0.99142 
vn -0.015182 0.0242962 -0.99959 
vn 0.0286893 -0.0459124 -0.998533 
vn 0.0412149 -0.0659577 -0.996971 
vn 0.013043 -0.0208731 -0.999697 
vn -0.0713906 0.114249 -0.990884 
vn -0.0286893 0.0459124 -0.998533 
vn -0.0151659 0.0242706 -0.99959 
vn -0.0433319 0.0693455 -0.996651 
vn -0.071375 0.114224 -0.990888 
vn -0.0857314 0.137199 -0.986827 
vn -0.12679 0.202907 -0.970955 
vn -0.0992159 0.158779 -0.982316 
vn -0.126776 0.202883 -0.970962 
vn -0.141768 0.226877 -0.96355 
vn -0.180754 0.289267 -0.940028 
vn -0.153976 0.246413 -0.956855 
vn -0.18074 0.289245 -0.940037 
vn -0.196143 0.313895 -0.928977 
vn -0.23267 0.37235 -0.898454 
vn -0.206992 0.331257 -0.920556 
vn -0.232658 0.37233 -0.898466 
vn -0.248219 0.397233 -0.883512 
vn -0.281951 0.451216 -0.846704 
vn -0.257664 0.412348 -0.87383 
vn -0.28194 0.451198 -0.846717 
vn -0.297384 0.475914 -0.827689 
vn -0.328038 0.524971 -0.785364 
vn -0.305417 0.488769 -0.817206 
vn -0.328029 0.524956 -0.785378 
vn -0.343062 0.549015 -0.762162 
vn -0.37041 0.59278 -0.715129 
vn -0.349711 0.559654 -0.751325 
vn -0.370402 0.592767 -0.715143 
vn -0.384719 0.615679 -0.687699 
vn -0.408586 0.653874 -0.636794 
vn -0.390043 0.6242 -0.676935 
vn -0.40858 0.653864 -0.636808 
vn -0.421865 0.675125 -0.605174 
vn -0.442134 0.707563 -0.551246 
vn -0.425958 0.681675 -0.594877 
vn -0.442129 0.707555 -0.55126 
vn -0.454065 0.726656 -0.515554 
vn -0.470675 0.753237 -0.459455 
vn -0.457048 0.73143 -0.506081 
vn -0.470671 0.753232 -0.459468 
vn -0.480942 0.769668 -0.419889 
vn -0.493884 0.79038 -0.36246 
vn -0.482961 0.772899 -0.411553 
vn -0.493882 0.790376 -0.362471 
vn -0.50218 0.803655 -0.319302 
vn -0.5115 0.818571 -0.26136 
vn -0.503404 0.805614 -0.312363 
vn -0.511499 0.818569 -0.261369 
vn -0.51753 0.828221 -0.21497 
vn -0.523322 0.837491 -0.1573 
vn -0.518144 0.829204 -0.209635 
vn -0.523322 0.83749 -0.157307 
vn -0.526813 0.843077 -0.108119 
vn -0.529217 0.846925 -0.0514586 
vn -0.527016 0.843402 -0.104533 
vn -0.529217 0.846924 -0.0514625 
vn -0.529919 0.848048 0 
vn -0.529918 0.848047 0.00175361 
vn -0.529118 0.846766 0.0549648 
vn -0.529118 0.846766 0.054966 
vn -0.526819 0.843086 0.10802 
vn -0.526813 0.843077 0.108119 
vn -0.523026 0.837017 0.160769 
vn -0.523026 0.837017 0.160768 
vn -0.517751 0.828576 0.213063 
vn -0.51753 0.828221 0.21497 
vn -0.51101 0.817787 0.264753 
vn -0.51101 0.817787 0.264749 
vn -0.50282 0.80468 0.315693 
vn -0.50218 0.803655 0.319302 
vn -0.493205 0.789294 0.365738 
vn -0.493207 0.789296 0.365732 
vn -0.482193 0.77167 0.414747 
vn -0.480942 0.769668 0.419889 
vn -0.469814 0.75186 0.46258 
vn -0.469817 0.751864 0.462572 
vn -0.456105 0.72992 0.509103 
vn -0.454065 0.726656 0.515554 
vn -0.441102 0.705911 0.554183 
vn -0.441106 0.705917 0.554173 
vn -0.42485 0.679902 0.597693 
vn -0.421865 0.675125 0.605174 
vn -0.407393 0.651966 0.639508 
vn -0.407398 0.651974 0.639497 
vn -0.388783 0.622183 0.679512 
vn -0.384719 0.615679 0.687699 
vn -0.36907 0.590636 0.71759 
vn -0.369077 0.590646 0.717579 
vn -0.348312 0.557416 0.753635 
vn -0.343062 0.549015 0.762162 
vn -0.326567 0.522616 0.787544 
vn -0.326575 0.522629 0.787533 
vn -0.303896 0.486336 0.819222 
vn -0.297384 0.475914 0.827689 
vn -0.280365 0.448677 0.848578 
vn -0.280374 0.448692 0.848567 
vn -0.256038 0.409747 0.87553 
vn -0.248219 0.397233 0.883512 
vn -0.230986 0.369656 0.9 
vn 0.476927 -0.763243 -0.43589 
vn 0.848048 0.529919 0 
vn 0 0 -1 
vn 1.51051e-16 1 0 
vn 1 -1.51051e-16 0 
vn -1 1.51051e-16 0 
vn 0 0 -1 
vn 0 0 1 
vn 1.51051e-16 1 0 
vn 1 -1.51051e-16 -3.46945e-16 
usemtl 0.647059_0.647059_0.647059_0.000000_0.000000
o mesh0
f 59//1 1//1 2//1 
f 2//1 3//1 59//1 
f 3//1 4//1 59//1 
f 4//1 5//1 59//1 
f 5//1 6//1 59//1 
f 6//1 7//1 59//1 
f 7//1 8//1 59//1 
f 8//1 9//1 59//1 
f 9//1 10//1 59//1 
f 10//1 11//1 59//1 
f 11//1 12//1 59//1 
f 12//1 13//1 59//1 
f 13//1 14//1 59//1 
f 14//1 15//1 59//1 
f 15//1 16//1 59//1 
f 16//1 17//1 59//1 
f 17//1 18//1 59//1 
f 18//1 19//1 59//1 
f 19//1 20//1 59//1 
f 20//1 21//1 59//1 
f 21//1 22//1 59//1 
f 22//1 23//1 59//1 
f 23//1 24//1 59//1 
f 24//1 25//1 59//1 
f 25//1 26//1 59//1 
f 26//1 27//1 59//1 
f 27//1 28//1 59//1 
f 28//1 29//1 59//1 
f 29//1 30//1 59//1 
f 30//1 31//1 59//1 
f 31//1 32//1 59//1 
f 32//1 33//1 59//1 
f 33//1 34//1 59//1 
f 34//1 35//1 59//1 
f 35//1 36//1 59//1 
f 36//1 37//1 59//1 
f 37//1 38//1 59//1 
f 38//1 39//1 59//1 
f 39//1 40//1 59//1 
f 40//1 41//1 59//1 
f 41//1 42//1 59//1 
f 42//1 43//1 59//1 
f 43//1 44//1 59//1 
f 44//1 45//1 59//1 
f 45//1 46//1 59//1 
f 46//1 47//1 59//1 
f 47//1 48//1 59//1 
f 48//1 49//1 59//1 
f 49//1 50//1 59//1 
f 50//1 51//1 59//1 
f 51//1 52//1 59//1 
f 52//1 53//1 59//1 
f 53//1 54//1 59//1 
f 54//1 55//1 59//1 
f 55//1 56//1 59//1 
f 56//1 57//1 59//1 
f 57//1 58//1 59//1 
f 58//1 1//1 59//1 
o mesh1
f 60//2 29//2 28//3 
f 61//3 28//3 27//4 
f 62//4 27//4 26//5 
f 63//5 26//5 25//6 
f 64//6 25//6 24//7 
f 65//7 24//7 23//8 
f 66//8 23//8 22//9 
f 67//9 22//9 21//10 
f 68//10 21//10 20//11 
f 69//11 20//11 19//12 
f 70//12 19//12 18//13 
f 71//13 18//13 17//14 
f 72//14 17//14 16//15 
f 73//15 16//15 15//16 
f 74//17 15//16 14//18 
f 14//18 75//18 74//17 
f 75//18 14//18 13//19 
f 76//19 13//19 12//20 
f 77//20 12//20 11//21 
f 78//21 11//21 10//22 
f 79//22 10//22 9//23 
f 80//23 9//23 8//24 
f 81//24 8//24 7//25 
f 82//25 7//25 6//26 
f 83//26 6//26 5//27 
f 84//27 5//27 4//28 
f 85//28 4//28 3//29 
f 86//29 3//29 2//30 
f 87//30 2//30 1//31 
f 88//31 1//31 58//32 
f 89//32 58//32 57//33 
f 90//33 57//33 56//34 
f 91//34 56//34 55//35 
f 92//35 55//35 54//36 
f 93//36 54//36 53//37 
f 94//37 53//37 52//38 
f 95//38 52//38 51//39 
f 96//39 51//39 50//40 
f 97//40 50//40 49//41 
f 98//41 49//41 48//42 
f 99//42 48//42 47//43 
f 100//43 47//43 46//44 
f 101//44 46//44 45//45 
f 102//45 45//45 44//46 
f 103//46 44//46 43//47 
f 104//47 43//47 42//48 
f 105//48 42//48 41//49 
f 106//49 41//49 40//50 
f 107//50 40//50 39//51 
f 108//51 39//51 38//52 
f 109//52 38//52 37//53 
f 110//53 37//53 36//54 
f 111//54 36//54 35//55 
f 112//55 35//55 34//56 
f 113//56 34//56 33//57 
f 114//57 33//57 32//58 
f 115//58 32//58 31//59 
f 116//59 31//59 30//60 
f 117//60 30//60 29//2 
f 29//2 60//2 117//60 
f 30//60 117//60 116//59 
f 31//59 116//59 115//58 
f 32//58 115//58 114//57 
f 33//57 114//57 113//56 
f 34//56 113//56 112//55 
f 35//55 112//55 111//54 
f 36//54 111//54 110//53 
f 37//53 110//53 109//52 
f 38//52 109//52 108//51 
f 39//51 108//51 107//50 
f 40//50 107//50 106//49 
f 41//49 106//49 105//48 
f 42//48 105//48 104//47 
f 43//47 104//47 103//46 
f 44//46 103//46 102//45 
f 45//45 102//45 101//44 
f 46//44 101//44 100//43 
f 47//43 100//43 99//42 
f 48//42 99//42 98//41 
f 49//41 98//41 97//40 
f 50//40 97//40 96//39 
f 51//39 96//39 95//38 
f 52//38 95//38 94//37 
f 53//37 94//37 93//36 
f 54//36 93//36 92//35 
f 55//35 92//35 91//34 
f 56//34 91//34 90//33 
f 57//33 90//33 89//32 
f 58//32 89//32 88//31 
f 1//31 88//31 87//30 
f 2//30 87//30 86//29 
f 3//29 86//29 85//28 
f 4//28 85//28 84//27 
f 5//27 84//27 83//26 
f 6//26 83//26 82//25 
f 7//25 82//25 81//24 
f 8//24 81//24 80//23 
f 9//23 80//23 79//22 
f 10//22 79//22 78//21 
f 11//21 78//21 77//20 
f 12//20 77//20 76//19 
f 13//19 76//19 75//18 
f 74//17 118//61 15//16 
f 15//16 118//61 73//15 
f 16//15 73//15 72//14 
f 17//14 72//14 71//13 
f 18//13 71//13 70//12 
f 19//12 70//12 69//11 
f 20//11 69//11 68//10 
f 21//10 68//10 67//9 
f 22//9 67//9 66//8 
f 23//8 66//8 65//7 
f 24//7 65//7 64//6 
f 25//6 64//6 63//5 
f 26//5 63//5 62//4 
f 27//4 62//4 61//3 
f 28//3 61//3 60//2 
o mesh2
f 119//62 106//62 107//62 
f 119//62 111//62 112//62 
f 107//62 108//62 119//62 
f 120//62 88//62 89//62 
f 119//62 113//62 114//62 
f 119//62 110//62 111//62 
f 108//62 109//62 119//62 
f 119//62 121//62 102//62 
f 121//62 120//62 93//62 
f 120//62 87//62 88//62 
f 120//62 82//62 83//62 
f 114//62 115//62 119//62 
f 109//62 110//62 119//62 
f 119//62 104//62 105//62 
f 102//62 103//62 119//62 
f 121//62 98//62 99//62 
f 121//62 95//62 96//62 
f 93//62 94//62 121//62 
f 120//62 91//62 92//62 
f 89//62 90//62 120//62 
f 120//62 85//62 86//62 
f 83//62 84//62 120//62 
f 112//62 113//62 119//62 
f 103//62 104//62 119//62 
f 121//62 97//62 98//62 
f 94//62 95//62 121//62 
f 90//62 91//62 120//62 
f 84//62 85//62 120//62 
f 120//62 74//62 75//62 
f 122//62 60//62 61//62 
f 119//62 116//62 117//62 
f 105//62 106//62 119//62 
f 121//62 100//62 101//62 
f 96//62 97//62 121//62 
f 86//62 87//62 120//62 
f 120//62 80//62 81//62 
f 120//62 77//62 78//62 
f 75//62 76//62 120//62 
f 122//62 73//62 118//62 
f 122//62 70//62 71//62 
f 122//62 68//62 69//62 
f 122//62 64//62 65//62 
f 61//62 62//62 122//62 
f 117//62 122//62 119//62 
f 101//62 102//62 121//62 
f 92//62 93//62 120//62 
f 120//62 79//62 80//62 
f 76//62 77//62 120//62 
f 122//62 72//62 73//62 
f 69//62 70//62 122//62 
f 122//62 63//62 64//62 
f 117//62 60//62 122//62 
f 99//62 100//62 121//62 
f 78//62 79//62 120//62 
f 71//62 72//62 122//62 
f 122//62 66//62 67//62 
f 62//62 63//62 122//62 
f 81//62 82//62 120//62 
f 67//62 68//62 122//62 
f 115//62 116//62 119//62 
f 65//62 66//62 122//62 
f 118//62 74//62 122//62 
o mesh3
f 121//63 123//63 124//63 
f 124//63 120//63 121//63 
o mesh4
f 120//64 125//64 126//64 
f 74//64 120//64 127//64 
f 126//64 128//64 120//64 
f 122//64 129//64 130//64 
f 122//64 131//64 132//64 
f 128//64 127//64 120//64 
f 132//64 129//64 122//64 
f 122//64 133//64 134//64 
f 127//64 135//64 74//64 
f 134//64 131//64 122//64 
f 122//64 74//64 136//64 
f 135//64 137//64 74//64 
f 136//64 133//64 122//64 
f 137//64 138//64 74//64 
f 122//64 139//64 140//64 
f 138//64 136//64 74//64 
f 130//64 139//64 122//64 
f 120//64 124//64 141//64 
f 141//64 125//64 120//64 
f 140//64 142//64 122//64 
o mesh5
f 142//65 143//65 144//65 
f 142//65 145//65 143//65 
f 142//65 146//65 145//65 
f 142//65 140//65 147//65 
f 142//65 148//65 146//65 
f 147//65 149//65 142//65 
f 149//65 148//65 142//65 
f 144//65 150//65 142//65 
o mesh6
f 151//66 150//67 144//68 
f 144//68 152//69 151//66 
f 153//70 144//68 143//71 
f 143//71 154//72 153//70 
f 154//72 143//71 145//73 
f 145//73 155//74 156//75 
f 155//74 145//73 146//76 
f 146//76 157//77 158//78 
f 157//77 146//76 148//79 
f 148//79 159//80 160//81 
f 159//80 148//79 149//82 
f 149//82 147//83 161//84 
f 161//84 162//85 149//82 
f 147//83 140//86 161//84 
f 149//82 162//85 159//80 
f 148//79 160//81 157//77 
f 146//76 158//78 155//74 
f 145//73 156//75 154//72 
f 153//70 152//69 144//68 
f 151//66 163//87 150//67 
o mesh7
f 139//88 164//89 165//90 
f 139//88 130//91 166//92 
f 167//93 166//92 130//91 
f 130//91 129//94 167//93 
f 129//94 132//95 168//96 
f 169//97 168//96 132//95 
f 132//95 131//98 169//97 
f 131//98 134//99 170//100 
f 171//101 170//100 134//99 
f 134//99 133//102 171//101 
f 172//103 171//101 133//102 
f 172//103 136//103 138//104 
f 138//104 173//105 172//103 
f 173//105 138//104 137//106 
f 135//107 174//108 175//109 
f 175//109 137//106 135//107 
f 174//108 135//107 127//110 
f 128//111 176//112 177//113 
f 177//113 127//110 128//111 
f 176//112 128//111 126//114 
f 125//115 178//116 179//117 
f 179//117 126//114 125//115 
f 125//115 141//118 180//119 
f 180//119 178//116 125//115 
f 126//114 179//117 176//112 
f 127//110 177//113 174//108 
f 137//106 175//109 173//105 
f 133//102 136//103 172//103 
f 170//100 169//97 131//98 
f 168//96 167//93 129//94 
f 166//92 164//89 139//88 
f 165//90 140//120 139//88 
o mesh8
f 119//121 181//121 182//121 
f 182//121 183//121 119//121 
f 121//121 184//121 185//121 
f 121//121 186//121 187//121 
f 183//121 188//121 119//121 
f 187//121 184//121 121//121 
f 121//121 189//121 190//121 
f 188//121 191//121 119//121 
f 190//121 186//121 121//121 
f 119//121 192//121 189//121 
f 191//121 193//121 119//121 
f 189//121 121//121 119//121 
f 193//121 194//121 119//121 
f 121//121 195//121 196//121 
f 194//121 192//121 119//121 
f 185//121 195//121 121//121 
f 119//121 197//121 198//121 
f 198//121 181//121 119//121 
f 196//121 123//121 121//121 
o mesh9
f 197//122 199//122 200//122 
f 200//122 201//122 197//122 
f 197//122 202//122 203//122 
f 201//122 204//122 197//122 
f 197//122 205//122 202//122 
f 204//122 206//122 197//122 
f 206//122 205//122 197//122 
f 203//122 198//122 197//122 
o mesh10
f 202//123 207//124 208//125 
f 208//125 198//126 203//127 
f 209//128 207//124 202//123 
f 210//129 211//130 205//131 
f 205//131 206//132 210//129 
f 212//133 213//134 206//132 
f 206//132 204//135 212//133 
f 214//136 215//137 204//135 
f 204//135 201//138 214//136 
f 216//139 214//136 201//138 
f 200//140 217//141 216//139 
f 218//142 217//141 200//140 
f 199//143 219//143 218//142 
f 200//140 199//143 218//142 
f 201//138 200//140 216//139 
f 215//137 212//133 204//135 
f 213//134 210//129 206//132 
f 211//130 209//128 205//131 
f 202//123 205//131 209//128 
f 208//125 203//127 202//123 
o mesh11
f 195//144 220//145 221//146 
f 195//144 185//147 222//148 
f 223//149 222//148 185//147 
f 185//147 184//150 223//149 
f 184//150 187//151 224//152 
f 225//153 224//152 187//151 
f 187//151 186//154 225//153 
f 186//154 190//155 226//156 
f 227//157 226//156 190//155 
f 190//155 189//158 227//157 
f 228//159 227//157 189//158 
f 228//159 192//159 194//160 
f 194//160 229//161 228//159 
f 229//161 194//160 193//162 
f 191//163 230//164 231//165 
f 231//165 193//162 191//163 
f 230//164 191//163 188//166 
f 183//167 232//168 233//169 
f 233//169 188//166 183//167 
f 232//168 183//167 182//170 
f 181//171 234//172 235//173 
f 235//173 182//170 181//171 
f 181//171 198//174 236//175 
f 236//175 234//172 181//171 
f 182//170 235//173 232//168 
f 188//166 233//169 230//164 
f 193//162 231//165 229//161 
f 189//158 192//159 228//159 
f 226//156 225//153 186//154 
f 224//152 223//149 184//150 
f 222//148 220//145 195//144 
f 221//146 196//176 195//144 
o mesh12
f 142//177 163//177 237//177 
f 237//177 238//177 142//177 
f 142//177 150//177 163//177 
f 239//177 240//177 122//177 
f 122//177 142//177 239//177 
f 240//177 241//177 119//177 
f 197//177 242//177 243//177 
f 119//177 122//177 240//177 
f 244//177 197//177 119//177 
f 197//177 244//177 242//177 
f 119//177 241//177 244//177 
f 243//177 219//177 197//177 
f 219//177 199//177 197//177 
f 238//177 239//177 142//177 
o mesh13
f 245//178 241//178 240//178 
f 240//178 246//178 245//178 
o mesh14
f 245//179 247//179 244//179 
f 247//179 248//179 244//179 
f 247//179 249//179 248//179 
f 247//179 250//179 249//179 
f 244//179 241//179 245//179 
o mesh15
f 246//180 240//180 239//180 
f 239//180 251//180 246//180 
f 239//180 252//180 251//180 
f 252//180 253//180 251//180 
f 253//180 254//180 251//180 
o mesh16
f 246//181 251//181 247//181 
f 247//181 245//181 246//181 
o mesh17
f 251//182 255//182 256//182 
f 251//182 254//182 257//182 
f 251//182 258//182 259//182 
f 251//182 260//182 261//182 
f 257//182 255//182 251//182 
f 247//182 262//182 263//182 
f 247//182 259//182 264//182 
f 261//182 258//182 251//182 
f 256//182 265//182 251//182 
f 247//182 266//182 262//182 
f 259//182 247//182 251//182 
f 265//182 267//182 251//182 
f 247//182 268//182 266//182 
f 251//182 269//182 260//182 
f 267//182 270//182 251//182 
f 247//182 271//182 268//182 
f 264//182 272//182 247//182 
f 270//182 273//182 251//182 
f 247//182 274//182 271//182 
f 273//182 269//182 251//182 
f 247//182 275//182 276//182 
f 272//182 274//182 247//182 
f 263//182 275//182 247//182 
f 276//182 250//182 247//182 
o mesh18
f 277//183 278//184 279//185 
f 278//184 280//184 279//185 
f 281//186 282//186 283//187 
f 283//187 278//184 281//186 
f 284//188 285//188 286//189 
f 286//189 281//186 284//188 
f 287//190 288//190 289//191 
f 289//191 284//188 287//190 
f 290//192 291//192 292//193 
f 292//193 287//190 290//192 
f 293//194 294//194 295//195 
f 295//195 290//192 293//194 
f 296//196 297//196 298//197 
f 298//197 293//194 296//196 
f 299//198 300//198 301//199 
f 301//199 296//196 299//198 
f 302//200 303//200 304//201 
f 304//201 299//198 302//200 
f 305//202 306//202 307//203 
f 307//203 302//200 305//202 
f 308//204 309//205 217//206 
f 309//205 216//205 217//206 
f 310//207 215//207 214//208 
f 214//208 309//205 310//207 
f 311//209 213//209 212//210 
f 212//210 310//207 311//209 
f 210//211 311//209 312//212 
f 312//212 211//212 210//211 
f 313//213 208//213 207//214 
f 207//214 312//212 313//213 
f 207//214 209//215 312//212 
f 198//216 208//213 313//213 
f 314//217 236//217 198//216 
f 234//218 236//217 314//217 
f 315//219 235//219 234//218 
f 315//219 316//220 232//221 
f 316//220 233//220 232//221 
f 316//220 317//222 230//223 
f 317//222 231//222 230//223 
f 317//222 318//224 229//225 
f 318//224 228//224 229//225 
f 319//226 226//226 227//227 
f 227//227 318//224 319//226 
f 320//228 224//228 225//229 
f 225//229 319//226 320//228 
f 321//230 222//230 223//231 
f 223//231 320//228 321//230 
f 220//232 321//230 322//233 
f 322//233 221//233 220//232 
f 322//233 323//234 196//235 
f 324//236 325//236 323//234 
f 323//234 322//233 324//236 
f 326//237 327//237 328//238 
f 328//238 324//236 326//237 
f 329//239 330//239 331//240 
f 331//240 326//237 329//239 
f 332//241 333//241 334//242 
f 334//242 329//239 332//241 
f 335//243 336//243 337//244 
f 337//244 332//241 335//243 
f 338//245 339//245 340//246 
f 340//246 335//243 338//245 
f 341//247 342//247 343//248 
f 343//248 338//245 341//247 
f 344//249 345//249 346//250 
f 346//250 341//247 344//249 
f 347//251 348//251 349//252 
f 349//252 344//249 347//251 
f 350//253 351//253 352//254 
f 352//254 347//251 350//253 
f 353//255 351//253 350//253 
f 354//256 355//256 353//255 
f 356//257 355//256 354//256 
f 357//258 358//258 356//257 
f 359//259 358//258 357//258 
f 360//260 361//260 359//259 
f 362//261 361//260 360//260 
f 363//262 364//262 362//261 
f 363//262 365//263 366//264 
f 365//263 367//263 366//264 
f 365//263 368//265 369//266 
f 368//265 370//265 369//266 
f 368//265 371//267 372//268 
f 371//267 373//267 372//268 
f 371//267 374//269 375//270 
f 374//269 376//269 375//270 
f 374//269 377//271 378//272 
f 377//271 379//271 378//272 
f 377//271 380//273 381//274 
f 380//273 382//273 381//274 
f 380//273 383//275 384//276 
f 383//275 385//275 384//276 
f 383//275 386//277 387//278 
f 386//277 388//277 387//278 
f 386//277 389//279 390//280 
f 389//279 391//279 390//280 
f 389//279 392//281 393//282 
f 392//281 394//281 393//282 
f 392//281 277//183 395//283 
f 277//183 396//284 395//283 
f 397//285 398//286 276//287 
f 276//287 275//288 397//285 
f 399//289 397//285 263//290 
f 263//290 262//291 399//289 
f 400//292 399//289 266//293 
f 266//293 268//294 400//292 
f 401//295 400//292 271//296 
f 271//296 274//297 401//295 
f 306//202 305//202 264//298 
f 305//202 401//295 272//299 
f 272//299 264//298 305//202 
f 308//204 243//300 242//301 
f 218//302 219//303 243//300 
f 243//300 308//204 218//302 
f 402//304 244//305 248//306 
f 402//304 242//301 244//305 
f 403//306 248//306 249//307 
f 404//307 249//307 250//308 
f 250//308 398//286 404//307 
f 250//308 276//287 398//286 
f 249//307 404//307 403//306 
f 248//306 403//306 402//304 
f 242//301 402//304 308//204 
f 264//298 405//309 306//202 
f 274//297 272//299 401//295 
f 268//294 271//296 400//292 
f 262//291 266//293 399//289 
f 275//288 263//290 397//285 
f 395//283 394//281 392//281 
f 393//282 391//279 389//279 
f 390//280 388//277 386//277 
f 387//278 385//275 383//275 
f 384//276 382//273 380//273 
f 381//274 379//271 377//271 
f 378//272 376//269 374//269 
f 375//270 373//267 371//267 
f 372//268 370//265 368//265 
f 369//266 367//263 365//263 
f 366//264 364//262 363//262 
f 360//260 363//262 362//261 
f 357//258 360//260 359//259 
f 354//256 357//258 356//257 
f 350//253 354//256 353//255 
f 352//254 348//251 347//251 
f 349//252 345//249 344//249 
f 346//250 342//247 341//247 
f 343//248 339//245 338//245 
f 340//246 336//243 335//243 
f 337//244 333//241 332//241 
f 334//242 330//239 329//239 
f 331//240 327//237 326//237 
f 328//238 325//236 324//236 
f 196//235 221//233 322//233 
f 220//232 222//230 321//230 
f 223//231 224//228 320//228 
f 225//229 226//226 319//226 
f 227//227 228//224 318//224 
f 229//225 231//222 317//222 
f 230//223 233//220 316//220 
f 232//221 235//219 315//219 
f 314//217 315//219 234//218 
f 313//213 314//217 198//216 
f 209//215 211//212 312//212 
f 210//211 213//209 311//209 
f 212//210 215//207 310//207 
f 214//208 216//205 309//205 
f 217//206 218//302 308//204 
f 307//203 303//200 302//200 
f 304//201 300//198 299//198 
f 301//199 297//196 296//196 
f 298//197 294//194 293//194 
f 295//195 291//192 290//192 
f 292//193 288//190 287//190 
f 289//191 285//188 284//188 
f 286//189 282//186 281//186 
f 283//187 280//184 278//184 
f 279//185 396//284 277//183 
o mesh19
f 306//310 405//311 406//311 
f 307//312 306//310 407//313 
f 407//313 408//314 307//312 
f 303//315 307//312 408//314 
f 304//316 303//315 409//317 
f 409//317 410//318 304//316 
f 300//319 304//316 410//318 
f 301//320 300//319 411//321 
f 411//321 412//322 301//320 
f 297//323 301//320 412//322 
f 298//324 297//323 413//325 
f 413//325 414//326 298//324 
f 294//327 298//324 414//326 
f 295//328 294//327 415//329 
f 415//329 416//330 295//328 
f 291//331 295//328 416//330 
f 292//332 291//331 417//333 
f 417//333 418//334 292//332 
f 288//335 292//332 418//334 
f 289//336 288//335 419//337 
f 419//337 420//338 289//336 
f 285//339 289//336 420//338 
f 286//340 285//339 421//341 
f 421//341 422//342 286//340 
f 282//343 286//340 422//342 
f 283//344 282//343 423//345 
f 423//345 424//346 283//344 
f 280//347 283//344 424//346 
f 279//348 280//347 425//349 
f 425//349 426//350 279//348 
f 396//351 279//348 426//350 
f 396//351 427//352 428//353 
f 428//353 395//354 396//351 
f 395//354 428//353 429//355 
f 394//356 429//355 430//357 
f 430//357 393//358 394//356 
f 393//358 430//357 431//359 
f 391//360 431//359 432//361 
f 432//361 390//362 391//360 
f 390//362 432//361 433//363 
f 388//364 433//363 434//365 
f 434//365 387//366 388//364 
f 387//366 434//365 435//367 
f 385//368 435//367 436//369 
f 436//369 384//370 385//368 
f 384//370 436//369 437//371 
f 382//372 437//371 438//373 
f 438//373 381//374 382//372 
f 381//374 438//373 439//375 
f 379//376 439//375 440//377 
f 440//377 378//378 379//376 
f 378//378 440//377 441//379 
f 376//380 441//379 442//381 
f 442//381 375//382 376//380 
f 375//382 442//381 443//383 
f 373//384 443//383 444//385 
f 444//385 372//386 373//384 
f 372//386 444//385 445//387 
f 370//388 445//387 446//389 
f 446//389 369//390 370//388 
f 369//390 446//389 447//391 
f 367//392 447//391 448//393 
f 448//393 366//394 367//392 
f 366//394 448//393 449//395 
f 364//396 449//395 450//397 
f 450//397 362//398 364//396 
f 362//398 450//397 451//399 
f 361//400 451//399 452//401 
f 452//401 359//402 361//400 
f 359//402 452//401 453//403 
f 358//404 453//403 454//405 
f 454//405 356//406 358//404 
f 356//406 455//407 456//408 
f 356//406 454//405 455//407 
f 456//408 353//409 355//410 
f 353//409 457//411 458//412 
f 458//412 352//413 351//414 
f 353//409 456//408 457//411 
f 352//413 459//415 460//416 
f 460//416 349//417 348//418 
f 352//413 458//412 459//415 
f 349//417 461//419 462//420 
f 462//420 346//421 345//422 
f 349//417 460//416 461//419 
f 346//421 463//423 464//424 
f 464//424 343//425 342//426 
f 346//421 462//420 463//423 
f 343//425 465//427 466//428 
f 466//428 340//429 339//430 
f 343//425 464//424 465//427 
f 340//429 467//431 468//432 
f 468//432 337//433 336//434 
f 340//429 466//428 467//431 
f 337//433 469//435 470//436 
f 470//436 334//437 333//438 
f 337//433 468//432 469//435 
f 334//437 471//439 472//440 
f 472//440 331//441 330//442 
f 334//437 470//436 471//439 
f 331//441 473//443 474//444 
f 474//444 328//445 327//446 
f 331//441 472//440 473//443 
f 328//445 475//447 476//448 
f 476//448 323//449 325//450 
f 328//445 474//444 475//447 
f 196//451 323//449 476//448 
f 476//448 325//450 328//445 
f 474//444 327//446 331//441 
f 472//440 330//442 334//437 
f 470//436 333//438 337//433 
f 468//432 336//434 340//429 
f 466//428 339//430 343//425 
f 464//424 342//426 346//421 
f 462//420 345//422 349//417 
f 460//416 348//418 352//413 
f 458//412 351//414 353//409 
f 456//408 355//410 356//406 
f 453//403 358//404 359//402 
f 451//399 361//400 362//398 
f 449//395 364//396 366//394 
f 447//391 367//392 369//390 
f 445//387 370//388 372//386 
f 443//383 373//384 375//382 
f 441//379 376//380 378//378 
f 439//375 379//376 381//374 
f 437//371 382//372 384//370 
f 435//367 385//368 387//366 
f 433//363 388//364 390//362 
f 431//359 391//360 393//358 
f 429//355 394//356 395//354 
f 426//350 427//352 396//351 
f 424//346 425//349 280//347 
f 422//342 423//345 282//343 
f 420//338 421//341 285//339 
f 418//334 419//337 288//335 
f 416//330 417//333 291//331 
f 414//326 415//329 294//327 
f 412//322 413//325 297//323 
f 410//318 411//321 300//319 
f 408//314 409//317 303//315 
f 406//311 407//313 306//310 
o mesh20
f 477//452 392//452 389//452 
f 389//452 386//452 477//452 
f 386//452 383//452 477//452 
f 383//452 380//452 477//452 
f 380//452 377//452 477//452 
f 377//452 374//452 477//452 
f 374//452 371//452 477//452 
f 371//452 368//452 477//452 
f 368//452 365//452 477//452 
f 365//452 363//452 477//452 
f 363//452 360//452 477//452 
f 360//452 357//452 477//452 
f 357//452 354//452 477//452 
f 354//452 350//452 477//452 
f 350//452 347//452 477//452 
f 347//452 344//452 477//452 
f 344//452 341//452 477//452 
f 341//452 338//452 477//452 
f 338//452 335//452 477//452 
f 335//452 332//452 477//452 
f 332//452 329//452 477//452 
f 329//452 326//452 477//452 
f 326//452 324//452 477//452 
f 324//452 322//452 477//452 
f 322//452 321//452 477//452 
f 321//452 320//452 477//452 
f 320//452 319//452 477//452 
f 319//452 318//452 477//452 
f 318//452 317//452 477//452 
f 317//452 316//452 477//452 
f 316//452 315//452 477//452 
f 315//452 314//452 477//452 
f 314//452 313//452 477//452 
f 313//452 312//452 477//452 
f 312//452 311//452 477//452 
f 311//452 310//452 477//452 
f 310//452 309//452 477//452 
f 309//452 308//452 477//452 
f 308//452 402//452 477//452 
f 402//452 403//452 477//452 
f 403//452 404//452 477//452 
f 404//452 398//452 477//452 
f 398//452 397//452 477//452 
f 397//452 399//452 477//452 
f 399//452 400//452 477//452 
f 400//452 401//452 477//452 
f 401//452 305//452 477//452 
f 305//452 302//452 477//452 
f 302//452 299//452 477//452 
f 299//452 296//452 477//452 
f 296//452 293//452 477//452 
f 293//452 290//452 477//452 
f 290//452 287//452 477//452 
f 287//452 284//452 477//452 
f 284//452 281//452 477//452 
f 281//452 278//452 477//452 
f 278//452 277//452 477//452 
f 277//452 392//452 477//452 
o mesh21
f 259//453 478//453 406//453 
f 406//453 405//453 259//453 
f 405//453 264//453 259//453 
o mesh22
f 479//454 480//454 481//455 
f 481//455 482//456 479//454 
f 483//457 484//457 485//458 
f 485//458 479//454 483//457 
f 486//459 487//459 488//460 
f 488//460 483//457 486//459 
f 489//461 490//461 491//462 
f 491//462 486//459 489//461 
f 492//463 493//463 494//464 
f 494//464 489//461 492//463 
f 495//465 496//465 497//466 
f 497//466 492//463 495//465 
f 498//467 499//467 500//468 
f 500//468 495//465 498//467 
f 501//469 502//469 503//470 
f 503//470 498//467 501//469 
f 504//471 505//471 506//472 
f 506//472 501//469 504//471 
f 507//473 508//473 509//474 
f 509//474 504//471 507//473 
f 510//475 511//475 512//476 
f 512//476 507//473 510//475 
f 513//477 510//475 514//478 
f 514//478 515//478 513//477 
f 516//479 514//478 517//480 
f 517//480 518//480 516//479 
f 519//481 517//480 520//482 
f 520//482 521//482 519//481 
f 522//483 520//482 523//484 
f 523//484 524//484 522//483 
f 525//485 523//484 526//486 
f 526//486 527//486 525//485 
f 528//487 526//486 529//488 
f 529//488 530//488 528//487 
f 531//489 529//488 532//490 
f 532//490 533//490 531//489 
f 534//491 532//490 535//492 
f 535//492 536//492 534//491 
f 537//493 535//492 538//494 
f 538//494 539//494 537//493 
f 540//495 538//494 541//496 
f 541//496 542//496 540//495 
f 543//497 541//496 544//498 
f 544//498 545//498 543//497 
f 546//499 544//498 547//500 
f 547//500 548//500 546//499 
f 549//501 547//500 550//502 
f 550//502 551//502 549//501 
f 141//503 552//504 550//502 
f 553//505 180//505 141//503 
f 550//502 553//505 141//503 
f 178//506 180//505 553//505 
f 554//507 179//507 178//506 
f 554//507 555//508 176//509 
f 555//508 177//508 176//509 
f 555//508 556//510 174//511 
f 556//510 175//510 174//511 
f 556//510 557//512 173//513 
f 557//512 172//512 173//513 
f 558//514 170//514 171//515 
f 171//515 557//512 558//514 
f 559//516 168//516 169//517 
f 169//517 558//514 559//516 
f 560//518 166//518 167//519 
f 167//519 559//516 560//518 
f 164//520 560//518 561//521 
f 561//521 165//521 164//520 
f 140//522 561//521 562//523 
f 562//523 161//523 140//522 
f 563//524 160//524 159//525 
f 159//525 562//523 563//524 
f 159//525 162//526 562//523 
f 564//527 158//527 157//528 
f 157//528 563//524 564//527 
f 564//527 565//529 155//530 
f 565//529 156//529 155//530 
f 565//529 566//531 154//532 
f 566//531 153//531 154//532 
f 567//533 151//533 152//534 
f 152//534 566//531 567//533 
f 568//535 569//536 570//537 
f 569//536 571//536 570//537 
f 569//536 572//538 573//539 
f 572//538 574//538 573//539 
f 572//538 575//540 576//541 
f 575//540 577//540 576//541 
f 575//540 578//542 579//543 
f 578//542 580//542 579//543 
f 578//542 581//544 582//545 
f 581//544 583//544 582//545 
f 581//544 584//546 585//547 
f 584//546 586//546 585//547 
f 584//546 587//548 588//549 
f 587//548 589//548 588//549 
f 587//548 590//550 591//551 
f 590//550 592//550 591//551 
f 590//550 593//552 594//553 
f 593//552 595//552 594//553 
f 482//456 596//554 597//555 
f 597//555 593//552 482//456 
f 598//556 599//557 253//557 
f 600//558 598//556 252//559 
f 252//559 239//560 600//558 
f 151//533 567//533 237//561 
f 567//533 600//558 238//562 
f 238//562 237//561 567//533 
f 568//535 261//563 260//564 
f 601//565 602//566 261//563 
f 261//563 568//535 601//565 
f 603//567 269//568 273//569 
f 603//567 260//564 269//568 
f 604//569 270//570 267//571 
f 604//569 273//569 270//570 
f 605//571 265//572 256//573 
f 605//571 267//571 265//572 
f 606//573 255//574 257//575 
f 606//573 256//573 255//574 
f 599//557 607//575 254//576 
f 607//575 257//575 254//576 
f 254//576 253//557 599//557 
f 257//575 607//575 606//573 
f 256//573 606//573 605//571 
f 267//571 605//571 604//569 
f 273//569 604//569 603//567 
f 260//564 603//567 568//535 
f 237//561 163//577 151//533 
f 239//560 238//562 600//558 
f 253//557 252//559 598//556 
f 597//555 595//552 593//552 
f 594//553 592//550 590//550 
f 591//551 589//548 587//548 
f 588//549 586//546 584//546 
f 585//547 583//544 581//544 
f 582//545 580//542 578//542 
f 579//543 577//540 575//540 
f 576//541 574//538 572//538 
f 573//539 571//536 569//536 
f 570//537 601//565 568//535 
f 152//534 153//531 566//531 
f 154//532 156//529 565//529 
f 155//530 158//527 564//527 
f 157//528 160//524 563//524 
f 162//526 161//523 562//523 
f 140//522 165//521 561//521 
f 164//520 166//518 560//518 
f 167//519 168//516 559//516 
f 169//517 170//514 558//514 
f 171//515 172//512 557//512 
f 173//513 175//510 556//510 
f 174//511 177//508 555//508 
f 176//509 179//507 554//507 
f 553//505 554//507 178//506 
f 552//504 551//502 550//502 
f 549//501 548//500 547//500 
f 546//499 545//498 544//498 
f 543//497 542//496 541//496 
f 540//495 539//494 538//494 
f 537//493 536//492 535//492 
f 534//491 533//490 532//490 
f 531//489 530//488 529//488 
f 528//487 527//486 526//486 
f 525//485 524//484 523//484 
f 522//483 521//482 520//482 
f 519//481 518//480 517//480 
f 516//479 515//478 514//478 
f 513//477 511//475 510//475 
f 512//476 508//473 507//473 
f 509//474 505//471 504//471 
f 506//472 502//469 501//469 
f 503//470 499//467 498//467 
f 500//468 496//465 495//465 
f 497//466 493//463 492//463 
f 494//464 490//461 489//461 
f 491//462 487//459 486//459 
f 488//460 484//457 483//457 
f 485//458 480//454 479//454 
f 481//455 596//554 482//456 
o mesh23
f 549//578 551//579 608//580 
f 608//580 609//581 549//578 
f 551//579 552//582 608//580 
f 546//583 548//584 610//585 
f 610//585 611//586 546//583 
f 548//584 549//578 610//585 
f 543//587 545//588 612//589 
f 612//589 613//590 543//587 
f 545//588 546//583 612//589 
f 540//591 542//592 614//593 
f 614//593 615//594 540//591 
f 542//592 543//587 614//593 
f 537//595 539//596 616//597 
f 616//597 617//598 537//595 
f 539//596 540//591 616//597 
f 534//599 536//600 618//601 
f 618//601 619//602 534//599 
f 536//600 537//595 618//601 
f 531//603 533//604 620//605 
f 620//605 621//606 531//603 
f 533//604 534//599 620//605 
f 528//607 530//608 622//609 
f 622//609 623//610 528//607 
f 530//608 531//603 622//609 
f 525//611 527//612 624//613 
f 624//613 625//614 525//611 
f 527//612 528//607 624//613 
f 522//615 524//616 626//617 
f 626//617 627//618 522//615 
f 524//616 525//611 626//617 
f 519//619 521//620 628//621 
f 628//621 629//622 519//619 
f 629//622 630//623 519//619 
f 518//624 519//619 630//623 
f 516//625 518//624 631//626 
f 631//626 632//627 516//625 
f 515//628 516//625 632//627 
f 513//629 515//628 633//630 
f 633//630 634//631 513//629 
f 511//632 513//629 634//631 
f 512//633 511//632 635//634 
f 635//634 636//635 512//633 
f 508//636 512//633 636//635 
f 509//637 508//636 637//638 
f 637//638 638//639 509//637 
f 505//640 509//637 638//639 
f 506//641 505//640 639//642 
f 639//642 640//643 506//641 
f 502//644 506//641 640//643 
f 503//645 502//644 641//646 
f 641//646 642//647 503//645 
f 499//648 503//645 642//647 
f 500//649 499//648 643//650 
f 643//650 644//651 500//649 
f 496//652 500//649 644//651 
f 497//653 496//652 645//654 
f 645//654 646//655 497//653 
f 493//656 497//653 646//655 
f 494//657 493//656 647//658 
f 647//658 648//659 494//657 
f 490//660 494//657 648//659 
f 491//661 490//660 649//662 
f 649//662 650//663 491//661 
f 487//664 491//661 650//663 
f 488//665 487//664 651//666 
f 651//666 652//667 488//665 
f 484//668 488//665 652//667 
f 485//669 484//668 653//670 
f 653//670 654//671 485//669 
f 480//672 485//669 654//671 
f 481//673 480//672 655//674 
f 655//674 656//675 481//673 
f 596//676 481//673 656//675 
f 596//676 657//677 658//678 
f 658//678 597//679 596//676 
f 597//679 658//678 659//680 
f 595//681 659//680 660//682 
f 660//682 594//683 595//681 
f 594//683 660//682 661//684 
f 592//685 661//684 662//686 
f 662//686 591//687 592//685 
f 591//687 662//686 663//688 
f 589//689 663//688 664//690 
f 664//690 588//691 589//689 
f 588//691 664//690 665//692 
f 586//693 665//692 666//694 
f 666//694 585//695 586//693 
f 585//695 666//694 667//696 
f 583//697 667//696 668//698 
f 668//698 582//699 583//697 
f 582//699 668//698 669//700 
f 580//701 669//700 670//702 
f 670//702 579//703 580//701 
f 579//703 670//702 671//704 
f 577//705 671//704 672//706 
f 672//706 576//707 577//705 
f 576//707 672//706 673//708 
f 574//709 673//708 674//710 
f 674//710 573//711 574//709 
f 573//711 674//710 675//712 
f 571//713 675//712 676//714 
f 676//714 570//715 571//713 
f 570//715 676//714 677//716 
f 601//717 677//716 678//718 
f 678//718 602//718 601//717 
f 677//716 601//717 570//715 
f 675//712 571//713 573//711 
f 673//708 574//709 576//707 
f 671//704 577//705 579//703 
f 669//700 580//701 582//699 
f 667//696 583//697 585//695 
f 665//692 586//693 588//691 
f 663//688 589//689 591//687 
f 661//684 592//685 594//683 
f 659//680 595//681 597//679 
f 656//675 657//677 596//676 
f 654//671 655//674 480//672 
f 652//667 653//670 484//668 
f 650//663 651//666 487//664 
f 648//659 649//662 490//660 
f 646//655 647//658 493//656 
f 644//651 645//654 496//652 
f 642//647 643//650 499//648 
f 640//643 641//646 502//644 
f 638//639 639//642 505//640 
f 636//635 637//638 508//636 
f 634//631 635//634 511//632 
f 632//627 633//630 515//628 
f 630//623 631//626 518//624 
f 521//620 522//615 628//621 
f 627//618 628//621 522//615 
f 625//614 626//617 525//611 
f 623//610 624//613 528//607 
f 621//606 622//609 531//603 
f 619//602 620//605 534//599 
f 617//598 618//601 537//595 
f 615//594 616//597 540//591 
f 613//590 614//593 543//587 
f 611//586 612//589 546//583 
f 609//581 610//585 549//578 
f 608//580 552//582 141//719 
o mesh24
f 679//720 593//720 590//720 
f 590//720 587//720 679//720 
f 587//720 584//720 679//720 
f 584//720 581//720 679//720 
f 581//720 578//720 679//720 
f 578//720 575//720 679//720 
f 575//720 572//720 679//720 
f 572//720 569//720 679//720 
f 569//720 568//720 679//720 
f 568//720 603//720 679//720 
f 603//720 604//720 679//720 
f 604//720 605//720 679//720 
f 605//720 606//720 679//720 
f 606//720 607//720 679//720 
f 607//720 599//720 679//720 
f 599//720 598//720 679//720 
f 598//720 600//720 679//720 
f 600//720 567//720 679//720 
f 567//720 566//720 679//720 
f 566//720 565//720 679//720 
f 565//720 564//720 679//720 
f 564//720 563//720 679//720 
f 563//720 562//720 679//720 
f 562//720 561//720 679//720 
f 561//720 560//720 679//720 
f 560//720 559//720 679//720 
f 559//720 558//720 679//720 
f 558//720 557//720 679//720 
f 557//720 556//720 679//720 
f 556//720 555//720 679//720 
f 555//720 554//720 679//720 
f 554//720 553//720 679//720 
f 553//720 550//720 679//720 
f 550//720 547//720 679//720 
f 547//720 544//720 679//720 
f 544//720 541//720 679//720 
f 541//720 538//720 679//720 
f 538//720 535//720 679//720 
f 535//720 532//720 679//720 
f 532//720 529//720 679//720 
f 529//720 526//720 679//720 
f 526//720 523//720 679//720 
f 523//720 520//720 679//720 
f 520//720 517//720 679//720 
f 517//720 514//720 679//720 
f 514//720 510//720 679//720 
f 510//720 507//720 679//720 
f 507//720 504//720 679//720 
f 504//720 501//720 679//720 
f 501//720 498//720 679//720 
f 498//720 495//720 679//720 
f 495//720 492//720 679//720 
f 492//720 489//720 679//720 
f 489//720 486//720 679//720 
f 486//720 483//720 679//720 
f 483//720 479//720 679//720 
f 479//720 482//720 679//720 
f 482//720 593//720 679//720 
o mesh25
f 258//721 602//721 678//721 
f 258//721 261//721 602//721 
f 678//721 680//721 258//721 
o mesh26
f 123//722 458//722 457//722 
f 457//722 456//722 123//722 
f 124//722 628//722 627//722 
f 123//722 459//722 458//722 
f 124//722 629//722 628//722 
f 456//722 455//722 123//722 
f 627//722 626//722 124//722 
f 123//722 460//722 459//722 
f 124//722 630//722 629//722 
f 455//722 454//722 123//722 
f 626//722 625//722 124//722 
f 123//722 461//722 460//722 
f 124//722 631//722 630//722 
f 454//722 453//722 123//722 
f 625//722 624//722 124//722 
f 123//722 462//722 461//722 
f 124//722 632//722 631//722 
f 453//722 452//722 123//722 
f 624//722 623//722 124//722 
f 123//722 463//722 462//722 
f 124//722 633//722 632//722 
f 452//722 451//722 123//722 
f 623//722 622//722 124//722 
f 123//722 464//722 463//722 
f 124//722 634//722 633//722 
f 451//722 450//722 123//722 
f 622//722 621//722 124//722 
f 123//722 465//722 464//722 
f 124//722 635//722 634//722 
f 450//722 449//722 123//722 
f 621//722 620//722 124//722 
f 123//722 466//722 465//722 
f 124//722 636//722 635//722 
f 449//722 448//722 123//722 
f 620//722 619//722 124//722 
f 123//722 467//722 466//722 
f 124//722 637//722 636//722 
f 448//722 447//722 123//722 
f 619//722 618//722 124//722 
f 123//722 468//722 467//722 
f 124//722 638//722 637//722 
f 447//722 446//722 123//722 
f 618//722 617//722 124//722 
f 123//722 469//722 468//722 
f 124//722 639//722 638//722 
f 446//722 445//722 123//722 
f 617//722 616//722 124//722 
f 123//722 470//722 469//722 
f 124//722 640//722 639//722 
f 445//722 444//722 123//722 
f 616//722 615//722 124//722 
f 123//722 471//722 470//722 
f 124//722 641//722 640//722 
f 444//722 443//722 123//722 
f 615//722 614//722 124//722 
f 123//722 472//722 471//722 
f 124//722 642//722 641//722 
f 478//722 408//722 407//722 
f 443//722 442//722 123//722 
f 614//722 613//722 124//722 
f 680//722 678//722 677//722 
f 478//722 409//722 408//722 
f 123//722 473//722 472//722 
f 124//722 643//722 642//722 
f 677//722 676//722 680//722 
f 478//722 410//722 409//722 
f 442//722 441//722 123//722 
f 613//722 612//722 124//722 
f 676//722 675//722 680//722 
f 478//722 411//722 410//722 
f 123//722 474//722 473//722 
f 124//722 644//722 643//722 
f 675//722 674//722 680//722 
f 478//722 412//722 411//722 
f 441//722 440//722 123//722 
f 612//722 611//722 124//722 
f 674//722 673//722 680//722 
f 478//722 413//722 412//722 
f 123//722 475//722 474//722 
f 611//722 610//722 124//722 
f 124//722 646//722 645//722 
f 673//722 672//722 680//722 
f 478//722 414//722 413//722 
f 440//722 439//722 123//722 
f 645//722 644//722 124//722 
f 672//722 671//722 680//722 
f 478//722 415//722 414//722 
f 681//722 123//722 438//722 
f 123//722 476//722 475//722 
f 610//722 609//722 124//722 
f 124//722 682//722 647//722 
f 671//722 670//722 680//722 
f 478//722 416//722 415//722 
f 439//722 438//722 123//722 
f 647//722 646//722 124//722 
f 670//722 669//722 680//722 
f 478//722 417//722 416//722 
f 438//722 437//722 681//722 
f 682//722 648//722 647//722 
f 669//722 668//722 680//722 
f 478//722 418//722 417//722 
f 437//722 436//722 681//722 
f 682//722 649//722 648//722 
f 668//722 667//722 680//722 
f 478//722 419//722 418//722 
f 436//722 435//722 681//722 
f 682//722 650//722 649//722 
f 667//722 666//722 680//722 
f 478//722 420//722 419//722 
f 435//722 434//722 681//722 
f 682//722 651//722 650//722 
f 666//722 665//722 680//722 
f 478//722 421//722 420//722 
f 123//722 196//722 476//722 
f 609//722 608//722 124//722 
f 665//722 664//722 680//722 
f 478//722 422//722 421//722 
f 434//722 433//722 681//722 
f 682//722 652//722 651//722 
f 664//722 663//722 680//722 
f 478//722 423//722 422//722 
f 433//722 432//722 681//722 
f 682//722 653//722 652//722 
f 663//722 662//722 680//722 
f 478//722 424//722 423//722 
f 424//722 478//722 681//722 
f 432//722 431//722 681//722 
f 682//722 654//722 653//722 
f 660//722 659//722 682//722 
f 662//722 661//722 680//722 
f 681//722 425//722 424//722 
f 431//722 430//722 681//722 
f 682//722 655//722 654//722 
f 661//722 660//722 680//722 
f 681//722 426//722 425//722 
f 430//722 429//722 681//722 
f 682//722 656//722 655//722 
f 682//722 680//722 660//722 
f 681//722 427//722 426//722 
f 429//722 428//722 681//722 
f 682//722 657//722 656//722 
f 659//722 658//722 682//722 
f 124//722 123//722 681//722 
f 428//722 427//722 681//722 
f 658//722 657//722 682//722 
f 407//722 406//722 478//722 
f 681//722 682//722 124//722 
f 608//722 141//722 124//722 
o mesh27
f 682//723 683//723 258//723 
f 683//723 684//723 258//723 
f 258//723 680//723 682//723 
o mesh28
f 685//724 681//724 259//724 
f 681//724 478//724 259//724 
f 259//724 686//724 685//724 
o mesh29
f 682//725 681//725 687//725 
f 685//725 688//725 687//725 
f 687//725 681//725 685//725 
f 687//725 683//725 682//725 
o mesh30
f 686//726 259//726 689//726 
f 258//726 684//726 689//726 
f 689//726 259//726 258//726 
f 689//726 690//726 686//726 
o mesh31
f 683//727 687//727 689//727 
f 689//727 684//727 683//727 
o mesh32
f 690//728 689//728 687//728 
f 687//728 688//728 690//728 
o mesh33
f 685//727 686//727 690//727 
f 690//727 688//727 685//727 
